<?xml version="1.0" encoding="utf-8"?>
<!-- Generator: Adobe Illustrator 16.0.0, SVG Export Plug-In . SVG Version: 6.00 Build 0)  -->
<!DOCTYPE svg PUBLIC "-//W3C//DTD SVG 1.1//EN" "http://www.w3.org/Graphics/SVG/1.1/DTD/svg11.dtd">
<svg version="1.1" id="Layer_1" xmlns="http://www.w3.org/2000/svg" xmlns:xlink="http://www.w3.org/1999/xlink" x="0px" y="0px"
	 width="90px" height="50px" viewBox="0 0 90 50" enable-background="new 0 0 90 50" xml:space="preserve">
<g>
	<g>
		<g>
			<path d="M5.285,43.809c-0.418,0.146-1.21,0.35-2.002,0.35c-1.094,0-1.886-0.285-2.437-0.836C0.294,42.789-0.008,41.98,0,41.071
				c0.009-2.058,1.459-3.233,3.425-3.233c0.773,0,1.37,0.156,1.663,0.303l-0.284,1.121c-0.329-0.146-0.738-0.267-1.396-0.267
				c-1.13,0-1.983,0.661-1.983,2.003c0,1.277,0.773,2.03,1.886,2.03c0.311,0,0.561-0.037,0.667-0.093v-1.295H3.052v-1.093h2.232
				V43.809z"/>
			<path d="M6.341,37.984c0.436-0.072,1.085-0.128,1.806-0.128c0.89,0,1.513,0.138,1.939,0.487c0.355,0.293,0.552,0.725,0.552,1.295
				c0,0.789-0.543,1.332-1.059,1.525v0.027c0.418,0.174,0.649,0.588,0.8,1.156c0.188,0.699,0.374,1.507,0.489,1.746H9.482
				c-0.099-0.175-0.24-0.68-0.419-1.442c-0.16-0.771-0.418-0.983-0.969-0.992H7.685v2.435H6.341V37.984z M7.685,40.648h0.533
				c0.676,0,1.076-0.349,1.076-0.891c0-0.569-0.373-0.854-0.996-0.863c-0.329,0-0.516,0.027-0.613,0.046V40.648z"/>
			<path d="M13.091,42.504l-0.427,1.59h-1.405l1.832-6.191h1.779l1.859,6.191h-1.459l-0.463-1.59H13.091z M14.613,41.457
				l-0.374-1.313c-0.106-0.367-0.213-0.827-0.303-1.194h-0.018c-0.089,0.367-0.178,0.836-0.275,1.194l-0.355,1.313H14.613z"/>
			<path d="M17.529,37.984c0.418-0.072,1.005-0.128,1.832-0.128c0.836,0,1.433,0.165,1.833,0.496c0.382,0.312,0.64,0.827,0.64,1.433
				c0,0.606-0.195,1.121-0.551,1.471c-0.463,0.449-1.147,0.652-1.948,0.652c-0.178,0-0.338-0.01-0.463-0.028v2.214h-1.343V37.984z
				 M18.872,40.796c0.116,0.027,0.258,0.036,0.454,0.036c0.72,0,1.165-0.376,1.165-1.01c0-0.57-0.383-0.91-1.059-0.91
				c-0.275,0-0.463,0.028-0.561,0.056V40.796z"/>
			<path d="M24.056,37.902v2.379h2.233v-2.379h1.352v6.191H26.29v-2.591h-2.233v2.591h-1.36v-6.191H24.056z"/>
			<path d="M30.184,37.902v6.191h-1.361v-6.191H30.184z"/>
			<path d="M35.76,43.919c-0.249,0.129-0.81,0.267-1.539,0.267c-2.072,0-3.14-1.332-3.14-3.096c0-2.113,1.459-3.289,3.273-3.289
				c0.702,0,1.236,0.147,1.477,0.275l-0.275,1.112c-0.276-0.12-0.659-0.229-1.139-0.229c-1.076,0-1.913,0.67-1.913,2.049
				c0,1.239,0.712,2.021,1.922,2.021c0.409,0,0.862-0.093,1.13-0.202L35.76,43.919z"/>
			<path d="M36.693,42.651c0.364,0.192,0.925,0.386,1.503,0.386c0.623,0,0.952-0.266,0.952-0.67c0-0.387-0.284-0.607-1.005-0.873
				c-0.996-0.358-1.646-0.928-1.646-1.828c0-1.057,0.854-1.865,2.268-1.865c0.677,0,1.175,0.147,1.53,0.313l-0.303,1.131
				c-0.24-0.12-0.667-0.295-1.254-0.295s-0.872,0.275-0.872,0.598c0,0.395,0.339,0.569,1.112,0.873
				c1.059,0.403,1.557,0.973,1.557,1.846c0,1.038-0.773,1.92-2.419,1.92c-0.686,0-1.361-0.184-1.699-0.377L36.693,42.651z"/>
			<path d="M44.333,44.094l-1.922-6.191h1.485l0.729,2.618c0.205,0.735,0.392,1.442,0.534,2.214h0.026
				c0.151-0.744,0.338-1.479,0.543-2.187l0.765-2.646h1.441l-2.02,6.191H44.333z"/>
			<path d="M49.935,37.902v6.191h-1.361v-6.191H49.935z"/>
			<path d="M54.675,41.476h-2.206v1.47h2.464v1.148h-3.825v-6.191h3.701v1.148h-2.34v1.285h2.206V41.476z"/>
			<path d="M56.889,44.094l-1.424-6.191h1.45l0.454,2.554c0.133,0.735,0.258,1.534,0.355,2.159h0.018
				c0.098-0.672,0.24-1.415,0.392-2.178l0.507-2.535h1.441l0.479,2.609c0.134,0.725,0.231,1.387,0.321,2.075h0.018
				c0.089-0.688,0.222-1.415,0.347-2.149l0.489-2.535h1.379l-1.548,6.191H60.1l-0.507-2.664c-0.116-0.625-0.214-1.203-0.285-1.91
				h-0.018c-0.106,0.697-0.205,1.285-0.347,1.91l-0.569,2.664H56.889z"/>
			<path d="M65.613,37.984c0.418-0.072,1.006-0.128,1.832-0.128c0.836,0,1.434,0.165,1.834,0.496
				c0.381,0.312,0.639,0.827,0.639,1.433c0,0.606-0.195,1.121-0.551,1.471c-0.463,0.449-1.146,0.652-1.947,0.652
				c-0.178,0-0.338-0.01-0.463-0.028v2.214h-1.344V37.984z M66.957,40.796c0.115,0.027,0.258,0.036,0.453,0.036
				c0.721,0,1.166-0.376,1.166-1.01c0-0.57-0.383-0.91-1.059-0.91c-0.275,0-0.463,0.028-0.561,0.056V40.796z"/>
			<path d="M76.269,40.934c0,2.03-1.193,3.262-2.945,3.262c-1.779,0-2.82-1.388-2.82-3.151c0-1.855,1.148-3.243,2.918-3.243
				C75.263,37.801,76.269,39.225,76.269,40.934z M71.937,41.016c0,1.213,0.551,2.068,1.457,2.068c0.918,0,1.441-0.9,1.441-2.104
				c0-1.111-0.516-2.067-1.449-2.067C72.47,38.912,71.937,39.813,71.937,41.016z"/>
			<path d="M78.517,37.902v6.191h-1.361v-6.191H78.517z"/>
			<path d="M79.691,44.094v-6.191h1.584l1.244,2.269c0.355,0.652,0.711,1.425,0.979,2.122h0.027
				c-0.09-0.817-0.117-1.653-0.117-2.581v-1.81h1.246v6.191H83.23l-1.279-2.389c-0.357-0.661-0.748-1.461-1.041-2.186l-0.027,0.009
				c0.035,0.817,0.053,1.69,0.053,2.7v1.865H79.691z"/>
			<path d="M86.984,39.078h-1.611v-1.176h4.607v1.176h-1.637v5.016h-1.359V39.078z"/>
		</g>
	</g>
	<g>
		<g>
			<g>
				<g>
					<path fill-rule="evenodd" clip-rule="evenodd" fill="#4B164B" d="M15.964,18.621h9.489l6.209,12.5
						c-0.976,1.418-4.258,2.295-9.313,2.295c-5.056,0-13.126,0-15.166,0S0,32.627,0,26.422s0-8.332,0-10.814
						s0.849-7.019,5.321-7.689C11.597,7.4,23.769,7.168,28.38,8.23c2.927,0.799,3.637,2.501,4.878,5.071
						c1.242,2.571,6.652,13.478,6.652,13.478l1.33-0.004l9.49-19.324h8.426L46.881,33.469H34.998c0,0-8.391-16.887-8.923-18.127
						c-0.532-1.242-1.508-2.04-3.104-2.04c-1.596,0-10.643,0.178-11.884,0.178c-1.242,0-3.104,0.354-3.371,2.571
						c-0.266,2.216-0.443,6.736-0.177,8.421c0.266,1.685,0.976,2.926,3.636,2.926c2.661,0,11.796,0,12.771,0
						s2.307-0.709,2.307-1.685c0-0.975,0-2.127,0-2.127H16.141L15.964,18.621z"/>
				</g>
			</g>
			<g>
				<g>
					<path fill="#4B164B" d="M75.824,15.057l2.945,0.018l-0.016,0.004c2.357,0,3.609,0.81,3.609,2.576
						c0,2.564-1.988,3.033-3.904,3.033c-1.914,0-22.104,0-22.104,0v12.797h7.518v-5.18c0,0,10.314,0,12.893,0S90,28.619,90,17.373
						c0-8.842-8.412-9.847-11.186-9.96l-0.102,0.001l-2.949,0.025c-0.002-0.503-0.006-0.812-0.006-0.812
						c0-0.16-0.129-0.287-0.289-0.286l-0.664,0.004c-0.16,0.002-0.289,0.133-0.287,0.291l0.072,9.273
						c0,0.158,0.127,0.287,0.289,0.287l0.664-0.006c0.16-0.001,0.287-0.132,0.289-0.289C75.832,15.902,75.826,15.578,75.824,15.057"
						/>
				</g>
			</g>
			<g>
				<path fill-rule="evenodd" clip-rule="evenodd" fill="#4B164B" d="M59.557,11.487c4.204-1.419,9.165-3.961,11.001-5.683
					c0.867,1.795,2.512,3.053,4.426,3.219c0.025,3.271,0.074,5.262,0.074,5.262c-1.932,0.184-3.574,1.477-4.416,3.301v0.002
					c-1.156-1.055-3.512-2.402-6.144-3.598c-1.66-0.793-3.964-1.602-3.964-1.602c-0.328-0.115-0.654-0.226-0.976-0.33l9.138-0.041
					c0.145,0.453,0.57,0.777,1.074,0.775c0.619-0.004,1.119-0.511,1.115-1.131c-0.006-0.619-0.514-1.12-1.131-1.113
					c-0.533,0.004-0.977,0.377-1.088,0.872L59.557,11.487z"/>
			</g>
		</g>
	</g>
</g>
</svg>
