<?xml version="1.0" encoding="utf-8"?>
<!-- Generator: Adobe Illustrator 16.0.0, SVG Export Plug-In . SVG Version: 6.00 Build 0)  -->
<!DOCTYPE svg PUBLIC "-//W3C//DTD SVG 1.1//EN" "http://www.w3.org/Graphics/SVG/1.1/DTD/svg11.dtd">
<svg version="1.1" id="Layer_1" xmlns="http://www.w3.org/2000/svg" xmlns:xlink="http://www.w3.org/1999/xlink" x="0px" y="0px"
	 width="90px" height="50px" viewBox="0 0 90 50" enable-background="new 0 0 90 50" xml:space="preserve">
<g>
	<g>
		<g>
			<path fill="#FFFFFF" d="M5.284,43.81c-0.418,0.146-1.21,0.349-2.001,0.349c-1.094,0-1.886-0.284-2.437-0.836
				C0.294,42.79-0.008,41.981,0,41.072c0.009-2.058,1.459-3.233,3.425-3.233c0.773,0,1.37,0.156,1.663,0.303l-0.285,1.121
				c-0.329-0.147-0.738-0.267-1.396-0.267c-1.129,0-1.983,0.661-1.983,2.002c0,1.277,0.774,2.03,1.886,2.03
				c0.312,0,0.561-0.036,0.667-0.092v-1.295H3.052v-1.093h2.232V43.81z"/>
			<path fill="#FFFFFF" d="M6.341,37.985c0.436-0.073,1.085-0.129,1.806-0.129c0.89,0,1.512,0.139,1.939,0.487
				c0.356,0.294,0.552,0.726,0.552,1.295c0,0.79-0.543,1.332-1.059,1.525v0.027c0.418,0.175,0.649,0.588,0.8,1.157
				c0.187,0.698,0.374,1.507,0.489,1.745H9.481c-0.098-0.174-0.24-0.68-0.418-1.442c-0.16-0.771-0.418-0.982-0.969-0.991H7.685
				v2.434H6.341V37.985z M7.685,40.649h0.534c0.676,0,1.076-0.35,1.076-0.891c0-0.57-0.374-0.854-0.996-0.864
				c-0.33,0-0.516,0.027-0.614,0.046V40.649z"/>
			<path fill="#FFFFFF" d="M13.091,42.505l-0.427,1.589h-1.405l1.833-6.191h1.779l1.859,6.191h-1.459l-0.462-1.589H13.091z
				 M14.612,41.458l-0.374-1.313c-0.107-0.368-0.213-0.827-0.302-1.194h-0.018c-0.089,0.367-0.178,0.836-0.276,1.194l-0.355,1.313
				H14.612z"/>
			<path fill="#FFFFFF" d="M17.528,37.985c0.418-0.073,1.005-0.129,1.833-0.129c0.836,0,1.432,0.166,1.833,0.496
				c0.382,0.313,0.64,0.827,0.64,1.434s-0.196,1.12-0.551,1.47c-0.462,0.45-1.147,0.652-1.948,0.652
				c-0.178,0-0.338-0.01-0.462-0.027v2.213h-1.343V37.985z M18.872,40.796c0.116,0.028,0.258,0.037,0.454,0.037
				c0.72,0,1.165-0.377,1.165-1.011c0-0.569-0.382-0.909-1.058-0.909c-0.276,0-0.463,0.027-0.561,0.056V40.796z"/>
			<path fill="#FFFFFF" d="M24.056,37.902v2.38h2.233v-2.38h1.352v6.191h-1.352v-2.59h-2.233v2.59h-1.361v-6.191H24.056z"/>
			<path fill="#FFFFFF" d="M30.184,37.902v6.191h-1.361v-6.191H30.184z"/>
			<path fill="#FFFFFF" d="M35.76,43.92c-0.25,0.128-0.81,0.266-1.539,0.266c-2.073,0-3.14-1.331-3.14-3.095
				c0-2.113,1.459-3.289,3.273-3.289c0.703,0,1.236,0.146,1.477,0.275l-0.275,1.111c-0.276-0.119-0.659-0.229-1.139-0.229
				c-1.076,0-1.913,0.671-1.913,2.049c0,1.24,0.711,2.021,1.921,2.021c0.409,0,0.863-0.092,1.13-0.202L35.76,43.92z"/>
			<path fill="#FFFFFF" d="M36.693,42.651c0.364,0.193,0.925,0.387,1.503,0.387c0.623,0,0.952-0.267,0.952-0.671
				c0-0.386-0.284-0.606-1.005-0.873c-0.996-0.357-1.646-0.928-1.646-1.828c0-1.056,0.854-1.864,2.268-1.864
				c0.676,0,1.174,0.146,1.53,0.313l-0.303,1.13c-0.24-0.12-0.667-0.294-1.254-0.294c-0.587,0-0.872,0.275-0.872,0.597
				c0,0.395,0.338,0.57,1.112,0.873c1.059,0.404,1.557,0.974,1.557,1.847c0,1.037-0.773,1.919-2.419,1.919
				c-0.685,0-1.361-0.184-1.699-0.376L36.693,42.651z"/>
			<path fill="#FFFFFF" d="M44.332,44.094l-1.921-6.191h1.485l0.729,2.618c0.205,0.735,0.391,1.442,0.534,2.214h0.027
				c0.151-0.744,0.338-1.479,0.542-2.186l0.765-2.646h1.441l-2.02,6.191H44.332z"/>
			<path fill="#FFFFFF" d="M49.935,37.902v6.191h-1.361v-6.191H49.935z"/>
			<path fill="#FFFFFF" d="M54.675,41.476h-2.206v1.471h2.465v1.147h-3.825v-6.191h3.7v1.148h-2.34v1.286h2.206V41.476z"/>
			<path fill="#FFFFFF" d="M56.889,44.094l-1.424-6.191h1.45l0.454,2.554c0.133,0.735,0.258,1.534,0.355,2.159h0.018
				c0.099-0.671,0.24-1.415,0.392-2.177l0.507-2.536h1.441l0.48,2.609c0.133,0.726,0.231,1.387,0.32,2.076H60.9
				c0.089-0.689,0.223-1.415,0.347-2.149l0.489-2.536h1.379l-1.548,6.191H60.1l-0.507-2.664c-0.116-0.624-0.214-1.203-0.284-1.91
				H59.29c-0.106,0.698-0.204,1.286-0.347,1.91l-0.569,2.664H56.889z"/>
			<path fill="#FFFFFF" d="M65.612,37.985c0.418-0.073,1.006-0.129,1.832-0.129c0.836,0,1.434,0.166,1.834,0.496
				c0.383,0.313,0.641,0.827,0.641,1.434s-0.197,1.12-0.553,1.47c-0.463,0.45-1.146,0.652-1.947,0.652
				c-0.178,0-0.338-0.01-0.463-0.027v2.213h-1.344V37.985z M66.956,40.796c0.115,0.028,0.258,0.037,0.453,0.037
				c0.721,0,1.166-0.377,1.166-1.011c0-0.569-0.383-0.909-1.059-0.909c-0.275,0-0.463,0.027-0.561,0.056V40.796z"/>
			<path fill="#FFFFFF" d="M76.268,40.935c0,2.029-1.193,3.261-2.945,3.261c-1.779,0-2.82-1.388-2.82-3.151
				c0-1.855,1.148-3.242,2.918-3.242C75.262,37.802,76.268,39.226,76.268,40.935z M71.936,41.017c0,1.213,0.551,2.067,1.459,2.067
				c0.916,0,1.439-0.9,1.439-2.104c0-1.112-0.516-2.067-1.449-2.067C72.469,38.913,71.936,39.813,71.936,41.017z"/>
			<path fill="#FFFFFF" d="M78.516,37.902v6.191h-1.361v-6.191H78.516z"/>
			<path fill="#FFFFFF" d="M79.69,44.094v-6.191h1.584l1.244,2.27c0.355,0.652,0.711,1.424,0.979,2.122h0.027
				c-0.09-0.818-0.115-1.653-0.115-2.582v-1.81h1.244v6.191h-1.424l-1.279-2.388c-0.355-0.662-0.748-1.461-1.041-2.187l-0.027,0.009
				c0.035,0.818,0.053,1.69,0.053,2.701v1.864H79.69z"/>
			<path fill="#FFFFFF" d="M86.981,39.078h-1.609v-1.176h4.607v1.176h-1.637v5.016h-1.361V39.078z"/>
		</g>
	</g>
	<g>
		<g>
			<g>
				<g>
					<path fill-rule="evenodd" clip-rule="evenodd" fill="#FFFFFF" d="M15.964,18.622h9.49l6.208,12.499
						c-0.976,1.418-4.257,2.296-9.313,2.296c-5.056,0-13.126,0-15.166,0S0,32.628,0,26.423c0-6.206,0-8.333,0-10.815
						c0-2.481,0.848-7.019,5.321-7.688c6.276-0.518,18.448-0.751,23.06,0.313c2.927,0.799,3.636,2.501,4.878,5.071
						c1.242,2.57,6.652,13.477,6.652,13.477l1.33-0.004l9.49-19.323h8.426L46.881,33.47H34.997c0,0-8.391-16.887-8.922-18.128
						c-0.532-1.241-1.508-2.039-3.104-2.039c-1.596,0-10.643,0.177-11.884,0.177s-3.104,0.355-3.37,2.571
						c-0.266,2.216-0.444,6.737-0.178,8.422c0.266,1.684,0.976,2.926,3.636,2.926c2.661,0,11.796,0,12.771,0s2.306-0.71,2.306-1.686
						c0-0.975,0-2.127,0-2.127H16.141L15.964,18.622z"/>
				</g>
			</g>
			<g>
				<g>
					<path fill="#FFFFFF" d="M75.823,15.057l2.945,0.018l-0.016,0.004c2.357,0,3.609,0.81,3.609,2.576
						c0,2.565-1.988,3.034-3.904,3.034c-1.914,0-22.102,0-22.102,0v12.796h7.517v-5.18c0,0,10.314,0,12.892,0S90,28.62,90,17.373
						c0-8.841-8.416-9.846-11.188-9.96l-0.102,0.002L75.762,7.44c0-0.504-0.004-0.813-0.004-0.813
						c-0.002-0.16-0.131-0.287-0.289-0.286l-0.664,0.005c-0.162,0.002-0.291,0.133-0.289,0.291l0.072,9.273
						c0,0.158,0.127,0.286,0.291,0.286l0.662-0.005c0.162-0.001,0.287-0.132,0.289-0.29C75.831,15.902,75.825,15.579,75.823,15.057"
						/>
				</g>
			</g>
			<g>
				<path fill-rule="evenodd" clip-rule="evenodd" fill="#FFFFFF" d="M59.558,11.488c4.203-1.42,9.164-3.961,11.001-5.684
					c0.865,1.795,2.51,3.054,4.424,3.22c0.025,3.271,0.074,5.262,0.074,5.262c-1.932,0.183-3.574,1.477-4.416,3.301v0.001
					c-1.156-1.055-3.512-2.402-6.143-3.598c-1.66-0.792-3.964-1.602-3.964-1.602c-0.328-0.114-0.653-0.225-0.976-0.33l9.137-0.04
					c0.145,0.453,0.57,0.777,1.074,0.775c0.619-0.005,1.119-0.511,1.115-1.131c-0.006-0.619-0.514-1.12-1.131-1.114
					c-0.531,0.004-0.977,0.377-1.088,0.872L59.558,11.488z"/>
			</g>
		</g>
	</g>
</g>
</svg>
