<?xml version="1.0" encoding="utf-8"?>
<!-- Generator: Adobe Illustrator 18.0.0, SVG Export Plug-In . SVG Version: 6.00 Build 0)  -->
<!DOCTYPE svg PUBLIC "-//W3C//DTD SVG 1.1//EN" "http://www.w3.org/Graphics/SVG/1.1/DTD/svg11.dtd">
<svg version="1.1" id="Layer_1" xmlns="http://www.w3.org/2000/svg" xmlns:xlink="http://www.w3.org/1999/xlink" x="0px" y="0px"
	 width="256px" height="256px" viewBox="0 0 256 256" enable-background="new 0 0 256 256" xml:space="preserve">
<g>
	<g>
		<path fill="#E0E0E0" d="M110,193.1c0,2.9-2.3,5.2-5.2,5.2H23.7v-28.5c0-1.5,0.2-2.9,0.6-4.3v0c0.9-3,2.8-5.5,5.2-7.3
			c2.4-1.8,5.4-2.9,8.7-2.9H41l2.9,11.5c0,0,4.8,14,14.8,16.5l6.6-26.4c2.6,1.2,4.9,3.2,6.6,5.7l16.8,25.3h16.2
			C107.7,187.9,110,190.2,110,193.1z"/>
	</g>
	<g>
		<path fill="#4A555F" d="M256,221.2H0v-19.4h256V221.2z M3,218.2h250v-13.4H3V218.2z"/>
	</g>
	<g>
		<rect x="6.5" y="208.3" fill="#71CDE1" width="243" height="6.4"/>
	</g>
	<g>
		<polygon fill="#4A555F" points="151.7,244.7 148.7,244.7 148.7,221.2 111.7,221.2 111.7,244.7 108.7,244.7 108.7,218.2 
			151.7,218.2 		"/>
	</g>
	<g>
		<rect x="115.2" y="224.7" fill="#71CDE1" width="30" height="20"/>
	</g>
	<g>
		<path fill="#4A555F" d="M53.3,151.8c-12.6,0-22.8-10.2-22.8-22.8c0-12.6,10.2-22.8,22.8-22.8s22.8,10.2,22.8,22.8
			C76.1,141.6,65.8,151.8,53.3,151.8z M53.3,109.2c-10.9,0-19.8,8.9-19.8,19.8c0,10.9,8.9,19.8,19.8,19.8c10.9,0,19.8-8.9,19.8-19.8
			C73.1,118.1,64.2,109.2,53.3,109.2z"/>
	</g>
	<g>
		<path fill="#FFD552" d="M53.3,145.3c-9,0-16.3-7.3-16.3-16.3c0-9,7.3-16.3,16.3-16.3c9,0,16.3,7.3,16.3,16.3
			C69.6,138,62.3,145.3,53.3,145.3z"/>
	</g>
	<g>
		<path fill="#4A555F" d="M50.6,204.8c-8.1,0-15.4-4.5-19.2-11.6l-14-26.9l2.7-1.4l14,26.9c3.2,6.2,9.5,10,16.5,10l19.7,0
			c4.4,0,7.9-3.6,7.9-7.9c0-4.4-3.6-7.9-7.9-7.9h-5c-9.2,0-20.2-7.3-23.4-21.3l2.9-0.7c2.2,9.2,10.1,19,20.5,19h5
			c6,0,10.9,4.9,10.9,10.9c0,6-4.9,10.9-10.9,10.9L50.6,204.8z"/>
	</g>
	<g>
		<path fill="#4A555F" d="M59.1,185c-4.9-1.4-9.1-4.6-11.9-8.8l2.5-1.6c2.4,3.7,6.1,6.4,10.3,7.6L59.1,185z"/>
	</g>
	<g>
		<path fill="#4A555F" d="M60.2,185.3c-5.6-1.3-10.3-4.8-13.3-9.6l-0.2-0.4c0-0.1-0.1-0.2-0.1-0.2l-0.2-0.4c0.1,0.1,0.2,0.3,0.3,0.4
			l0.1-0.1v-0.1l0.1,0l1.9-1.9l0.2,0.4l0,0l0.2,0.3c0.1,0.2,0.2,0.3,0.2,0.4l0.3,0.4c2.6,4,6.6,6.8,11.2,7.9L60.2,185.3z"/>
	</g>
	<g>
		<path fill="#4A555F" d="M104.8,204.8H69.7v-3h35.1c4.8,0,8.7-3.9,8.7-8.7s-3.9-8.7-8.7-8.7H90.5l-15.7-23.7
			c-3.7-5.5-9.8-8.8-16.5-8.8h-20c-9.9,0-18,8.1-18,18v33.5h-3v-33.5c0-11.6,9.4-21,21-21h20c7.7,0,14.7,3.8,19,10.2l14.8,22.4h12.7
			c6.4,0,11.7,5.2,11.7,11.7S111.2,204.8,104.8,204.8z"/>
	</g>
	<g>
		<path fill="#4A555F" d="M110.7,203.2l-1.5-2.6c0.6-0.4,1.2-0.8,1.7-1.4c1.6-1.6,2.5-3.8,2.5-6.2c0-4.2-3-7.8-7-8.5
			c-0.5-0.1-1.1-0.2-1.7-0.2h-2.9v-3h2.9c0.8,0,1.5,0.1,2.2,0.2c5.5,1,9.5,5.9,9.5,11.5c0,3.1-1.2,6.1-3.4,8.3
			C112.3,202.1,111.5,202.7,110.7,203.2z"/>
	</g>
	<g>
		<path fill="#4A555F" d="M65.8,153.3c-1.5-0.6-3-1-4.5-1.3c-1-0.2-2-0.2-3-0.2H40.1v-3h18.2c1.2,0,2.3,0.1,3.4,0.3
			c1.8,0.3,3.5,0.7,5.2,1.4L65.8,153.3z"/>
	</g>
	<g>
		<rect x="189.3" y="224.7" fill="#E0E0E0" width="45" height="7.5"/>
	</g>
	<g>
		<rect x="23.7" y="224.7" fill="#E0E0E0" width="45" height="7.5"/>
	</g>
	<g>
		<polygon fill="#4A555F" points="240.8,232.2 237.8,232.2 237.8,221.2 185.8,221.2 185.8,232.2 182.8,232.2 182.8,218.2 
			240.8,218.2 		"/>
	</g>
	<g>
		<polygon fill="#4A555F" points="75.2,232.2 72.2,232.2 72.2,221.2 20.2,221.2 20.2,232.2 17.2,232.2 17.2,218.2 75.2,218.2 		"/>
	</g>
	<g>
		<polygon fill="#F68F6F" points="48,157.3 50.8,164 55.7,164 58.6,157.3 		"/>
	</g>
	<g>
		<path fill="#F68F6F" d="M59.5,183.6c-4.5-1.3-8.5-4.2-11.1-8.2l2.4-11.3h4.9L59.5,183.6z"/>
	</g>
	<g>
		<path fill="#4A555F" d="M56.7,165.5h-6.9l-4.1-9.8h15.1L56.7,165.5z M51.8,162.5h2.9l1.6-3.8h-6.1L51.8,162.5z"/>
	</g>
	<g>
		<path fill="#4A555F" d="M61.5,185.7l-2.4-0.7c-4.9-1.4-9.1-4.6-11.9-8.8l-0.3-0.5l2.8-13.1H57L61.5,185.7z M50,175
			c1.9,2.7,4.5,4.8,7.5,6.2l-3-15.7H52L50,175z"/>
	</g>
	<g>
		<path fill="#4A555F" d="M64.5,165.5H53.5l7.1-16.7l1.1,0.2c1.8,0.3,3.5,0.8,5.2,1.4l1.2,0.5L64.5,165.5z M58,162.5h4.2l2.4-9.7
			c-0.7-0.2-1.5-0.4-2.2-0.6L58,162.5z"/>
	</g>
	<g>
		<path fill="#4A555F" d="M53.1,165.5H42l-4.2-16.7H46L53.1,165.5z M44.4,162.5h4.2l-4.5-10.8h-2.4L44.4,162.5z"/>
	</g>
	<g>
		
			<rect x="61" y="151.4" transform="matrix(0.9709 0.2393 -0.2393 0.9709 41.9098 -10.0862)" fill="#4A555F" width="3" height="32.2"/>
	</g>
	<g>
		<g>
			<path fill="#E0E0E0" d="M148,193.1c0,2.9,2.3,5.2,5.2,5.2h81.1v-28.5c0-1.5-0.2-2.9-0.6-4.3v0c-0.9-3-2.8-5.5-5.2-7.3
				c-2.4-1.8-5.4-2.9-8.7-2.9H217l-2.9,11.5c0,0-4.8,14-14.8,16.5l-6.6-26.4c-2.6,1.2-4.9,3.2-6.6,5.7l-16.8,25.3h-16.2
				C150.3,187.9,148,190.2,148,193.1z"/>
		</g>
		<g>
			<path fill="#4A555F" d="M204.7,151.8c-12.6,0-22.8-10.2-22.8-22.8c0-12.6,10.2-22.8,22.8-22.8s22.8,10.2,22.8,22.8
				C227.5,141.6,217.3,151.8,204.7,151.8z M204.7,109.2c-10.9,0-19.8,8.9-19.8,19.8c0,10.9,8.9,19.8,19.8,19.8
				c10.9,0,19.8-8.9,19.8-19.8C224.5,118.1,215.6,109.2,204.7,109.2z"/>
		</g>
		<g>
			<path fill="#FFD552" d="M204.7,145.3c9,0,16.3-7.3,16.3-16.3c0-9-7.3-16.3-16.3-16.3c-9,0-16.3,7.3-16.3,16.3
				C188.4,138,195.7,145.3,204.7,145.3z"/>
		</g>
		<g>
			<path fill="#4A555F" d="M207.4,204.8l-19.7,0c-6,0-10.9-4.9-10.9-10.9c0-6,4.9-10.9,10.9-10.9h5c10.4,0,18.4-9.8,20.5-19l2.9,0.7
				c-3.3,14-14.3,21.3-23.4,21.3h-5c-4.4,0-7.9,3.6-7.9,7.9c0,4.4,3.6,7.9,7.9,7.9l19.7,0c7,0,13.3-3.8,16.5-10l14-26.9l2.7,1.4
				l-14,26.9C222.9,200.3,215.5,204.8,207.4,204.8z"/>
		</g>
		<g>
			<path fill="#4A555F" d="M198.9,185l-0.8-2.9c4.2-1.2,7.8-3.9,10.3-7.6l2.5,1.6C208,180.4,203.8,183.6,198.9,185z"/>
		</g>
		<g>
			<path fill="#4A555F" d="M197.8,185.3l-0.7-2.9c4.7-1.1,8.6-3.9,11.2-7.9v0l0.3-0.4c0.1-0.1,0.2-0.3,0.2-0.4l0.2-0.4l0.3-0.3
				l1.8,2l-0.8-0.9l1.4,0.5l-0.1,0.3l-0.2,0.3c-0.1,0.2-0.2,0.3-0.3,0.5l0,0.1C208.1,180.5,203.4,183.9,197.8,185.3z"/>
		</g>
		<g>
			<path fill="#4A555F" d="M188.3,204.8h-35.1c-6.4,0-11.7-5.2-11.7-11.7s5.2-11.7,11.7-11.7h12.7l14.8-22.4
				c4.2-6.4,11.3-10.2,19-10.2h20c11.6,0,21,9.4,21,21v33.5h-3v-33.5c0-9.9-8.1-18-18-18h-20c-6.6,0-12.8,3.3-16.5,8.8l-15.7,23.7
				h-14.3c-4.8,0-8.7,3.9-8.7,8.7s3.9,8.7,8.7,8.7h35.1V204.8z"/>
		</g>
		<g>
			<path fill="#4A555F" d="M192.2,153.3l-1.1-2.8c1.7-0.7,3.4-1.2,5.2-1.4c1.1-0.2,2.2-0.3,3.4-0.3h18.2v3h-18.2c-1,0-2,0.1-3,0.2
				C195.2,152.2,193.7,152.7,192.2,153.3z"/>
		</g>
		<g>
			<polygon fill="#F68F6F" points="199.4,157.3 202.2,164 207.2,164 210,157.3 			"/>
		</g>
		<g>
			<path fill="#F68F6F" d="M198.5,183.6c4.5-1.3,8.5-4.2,11.1-8.2l-2.4-11.3h-4.9L198.5,183.6z"/>
		</g>
		<g>
			<path fill="#4A555F" d="M208.2,165.5h-6.9l-4.1-9.8h15.1L208.2,165.5z M203.2,162.5h2.9l1.6-3.8h-6.1L203.2,162.5z"/>
		</g>
		<g>
			<path fill="#4A555F" d="M196.5,185.7l4.5-23.1h7.4l2.8,13.1l-0.3,0.5c-2.8,4.3-7,7.4-11.9,8.8L196.5,185.7z M203.5,165.5l-3,15.7
				c3-1.4,5.6-3.5,7.5-6.2l-2-9.5H203.5z"/>
		</g>
		<g>
			<path fill="#4A555F" d="M204.5,165.5h-11.1l-3.6-14.5l1.2-0.5c1.7-0.7,3.4-1.2,5.2-1.4l1.1-0.2L204.5,165.5z M195.8,162.5h4.2
				l-4.4-10.3c-0.7,0.2-1.5,0.4-2.2,0.6L195.8,162.5z"/>
		</g>
		<g>
			<path fill="#4A555F" d="M216,165.5h-11l7-16.7h8.2L216,165.5z M209.4,162.5h4.2l2.7-10.8h-2.4L209.4,162.5z"/>
		</g>
		<g>
			
				<rect x="179.4" y="166" transform="matrix(0.2392 0.971 -0.971 0.2392 311.4072 -62.3551)" fill="#4A555F" width="32.2" height="3"/>
		</g>
	</g>
	<g>
		<g>
			<path fill="#4A555F" d="M147.3,203.2c-0.9-0.5-1.7-1.1-2.4-1.8c-2.2-2.2-3.4-5.1-3.4-8.3c0-6.4,5.2-11.7,11.7-11.7h4.8v3h-4.8
				c-4.8,0-8.7,3.9-8.7,8.7c0,2.3,0.9,4.5,2.5,6.2c0.5,0.5,1.1,1,1.8,1.4L147.3,203.2z"/>
		</g>
	</g>
	<g>
		<path fill="#4A555F" d="M244.7,77.2l-15.8-15.9h-55.2c-8.3,0-15.1-6.8-15.1-15.1V26.4c0-8.3,6.8-15.1,15.1-15.1h55.8
			c8.3,0,15.1,6.8,15.1,15.1V77.2z M173.7,14.3c-6.7,0-12.1,5.4-12.1,12.1v19.8c0,6.7,5.4,12.1,12.1,12.1h56.5L241.7,70V26.4
			c0-6.7-5.4-12.1-12.1-12.1H173.7z"/>
	</g>
	<g>
		<path fill="#71CDE1" d="M231.6,54.9h-57.9c-4.8,0-8.6-3.9-8.6-8.6V26.4c0-4.8,3.9-8.6,8.6-8.6h55.8c4.8,0,8.6,3.9,8.6,8.6v35
			L231.6,54.9z"/>
	</g>
	<g>
		<path fill="#4A555F" d="M14.9,101V44.8c0-8.3,6.8-15.1,15.1-15.1h77.7c8.3,0,15.1,6.8,15.1,15.1v26.7c0,8.3-6.8,15.1-15.1,15.1H30
			c-0.3,0-0.6,0-0.8,0L14.9,101z M30,32.6c-6.7,0-12.1,5.4-12.1,12.1v48.9l10.2-10.2l0.7,0.1c0.4,0,0.8,0.1,1.3,0.1h77.7
			c6.7,0,12.1-5.4,12.1-12.1V44.8c0-6.7-5.4-12.1-12.1-12.1H30z"/>
	</g>
	<g>
		<path fill="#F68F6F" d="M21.4,44.8c0-4.8,3.9-8.6,8.6-8.6h77.7c4.8,0,8.6,3.9,8.6,8.6v26.7c0,4.8-3.9,8.6-8.6,8.6H30
			c-0.3,0-0.6,0-0.9,0l-2.4-0.2l-5.4,5.4V44.8z"/>
	</g>
	<g>
		<rect x="34.5" y="49.7" fill="#4A555F" width="9.4" height="3"/>
	</g>
	<g>
		<rect x="34.5" y="63.8" fill="#4A555F" width="70.5" height="3"/>
	</g>
	<g>
		<rect x="49.8" y="49.7" fill="#4A555F" width="9.4" height="3"/>
	</g>
	<g>
		<rect x="65.1" y="49.7" fill="#4A555F" width="9.4" height="3"/>
	</g>
	<g>
		<rect x="80.3" y="49.7" fill="#4A555F" width="9.4" height="3"/>
	</g>
	<g>
		<rect x="95.6" y="49.7" fill="#4A555F" width="9.4" height="3"/>
	</g>
	<g>
		<rect x="175.6" y="28.8" fill="#4A555F" width="9" height="3"/>
	</g>
	<g>
		<rect x="175.6" y="41" fill="#4A555F" width="52.5" height="3"/>
	</g>
	<g>
		<rect x="190.1" y="28.8" fill="#4A555F" width="9" height="3"/>
	</g>
	<g>
		<rect x="204.6" y="28.8" fill="#4A555F" width="9" height="3"/>
	</g>
	<g>
		<rect x="219.1" y="28.8" fill="#4A555F" width="9" height="3"/>
	</g>
</g>
</svg>
