<svg id="ART" xmlns="http://www.w3.org/2000/svg" xmlns:xlink="http://www.w3.org/1999/xlink" viewBox="0 0 48 48"><defs><style>.cls-1{fill:url(#linear-gradient);}.cls-2{fill:url(#linear-gradient-2);}.cls-3{fill:url(#linear-gradient-3);}.cls-4{fill:url(#linear-gradient-4);}.cls-5{fill:url(#linear-gradient-5);}.cls-6{fill:url(#linear-gradient-6);}.cls-7{fill:url(#linear-gradient-7);}.cls-8{fill:url(#linear-gradient-8);}.cls-9{fill:url(#linear-gradient-9);}.cls-10{fill:url(#linear-gradient-10);}.cls-11{fill:url(#linear-gradient-11);}.cls-12{fill:url(#linear-gradient-12);}.cls-13{fill:url(#linear-gradient-13);}.cls-14{fill:url(#linear-gradient-14);}.cls-15{fill:url(#linear-gradient-15);}.cls-16{fill:url(#linear-gradient-16);}.cls-17{fill:url(#linear-gradient-17);}.cls-18{fill:url(#linear-gradient-18);}.cls-19{fill:url(#linear-gradient-19);}.cls-20{fill:url(#linear-gradient-20);}</style><linearGradient id="linear-gradient" x1="30.75" y1="46.63" x2="30.75" y2="-6.37" gradientUnits="userSpaceOnUse"><stop offset="0" stop-color="#f3c57a"/><stop offset="0.49" stop-color="#f39369"/><stop offset="1" stop-color="#e94867"/></linearGradient><linearGradient id="linear-gradient-2" y1="9.53" x2="30.75" y2="0.8" xlink:href="#linear-gradient"/><linearGradient id="linear-gradient-3" y1="32.78" x2="30.75" y2="24.05" xlink:href="#linear-gradient"/><linearGradient id="linear-gradient-4" x1="11.82" y1="-75.26" x2="11.82" y2="-84" gradientTransform="translate(13.12 86.35)" xlink:href="#linear-gradient"/><linearGradient id="linear-gradient-5" x1="11.82" y1="-52.01" x2="11.82" y2="-60.75" gradientTransform="translate(24.74 83.23)" xlink:href="#linear-gradient"/><linearGradient id="linear-gradient-6" x1="38.11" y1="-158.65" x2="38.11" y2="-167.38" gradientTransform="translate(-17.42 173.99)" xlink:href="#linear-gradient"/><linearGradient id="linear-gradient-7" x1="38.11" y1="-135.4" x2="38.11" y2="-144.13" gradientTransform="translate(2.71 162.36)" xlink:href="#linear-gradient"/><linearGradient id="linear-gradient-8" x1="102" y1="-217.72" x2="102" y2="-226.45" gradientTransform="translate(240.38 119.63) rotate(-90)" xlink:href="#linear-gradient"/><linearGradient id="linear-gradient-9" x1="102" y1="-194.47" x2="102" y2="-203.2" gradientTransform="translate(240.38 119.63) rotate(-90)" xlink:href="#linear-gradient"/><linearGradient id="linear-gradient-10" x1="187.15" y1="-236.44" x2="187.15" y2="-245.18" gradientTransform="translate(260.65 210.59) rotate(-90)" xlink:href="#linear-gradient"/><linearGradient id="linear-gradient-11" x1="187.15" y1="-213.19" x2="187.15" y2="-221.93" gradientTransform="translate(257.53 198.96) rotate(-90)" xlink:href="#linear-gradient"/><linearGradient id="linear-gradient-12" x1="270.54" y1="-210.57" x2="270.54" y2="-219.31" gradientTransform="translate(239.04 298.23) rotate(-90)" xlink:href="#linear-gradient"/><linearGradient id="linear-gradient-13" x1="270.54" y1="-187.32" x2="270.54" y2="-196.06" gradientTransform="translate(227.41 278.09) rotate(-90)" xlink:href="#linear-gradient"/><linearGradient id="linear-gradient-14" x1="31.85" y1="28.25" x2="31.85" y2="12.46" xlink:href="#linear-gradient"/><linearGradient id="linear-gradient-15" x1="30.84" y1="39.06" x2="30.84" y2="13.25" xlink:href="#linear-gradient"/><linearGradient id="linear-gradient-16" x1="30.75" y1="28.99" x2="30.75" y2="-48.52" gradientUnits="userSpaceOnUse"><stop offset="0" stop-color="#fff"/><stop offset="0.41" stop-color="#cce2e6"/><stop offset="1" stop-color="#8fa1bb"/></linearGradient><linearGradient id="linear-gradient-17" x1="40.86" y1="45.18" x2="3.61" y2="26.43" gradientUnits="userSpaceOnUse"><stop offset="0" stop-color="#273a9b"/><stop offset="0.56" stop-color="#202f65"/><stop offset="1" stop-color="#021e2f"/></linearGradient><linearGradient id="linear-gradient-18" x1="26.93" y1="33.84" x2="26.93" y2="15.09" xlink:href="#linear-gradient-17"/><linearGradient id="linear-gradient-19" x1="19.75" y1="31.4" x2="19.75" y2="-6.01" xlink:href="#linear-gradient-17"/><linearGradient id="linear-gradient-20" x1="55.65" y1="56.48" x2="9.58" y2="10.41" gradientTransform="matrix(1, 0, 0, -1, -31.5, 73.74)" xlink:href="#linear-gradient-17"/></defs><title>cost, like, rating, review, money, finance</title><circle class="cls-1" cx="30.75" cy="17.25" r="14.25"/><circle class="cls-2" cx="30.75" cy="6" r="0.75"/><circle class="cls-3" cx="30.75" cy="29.25" r="0.75"/><circle class="cls-4" cx="24.94" cy="7.56" r="0.75" transform="matrix(0.87, -0.5, 0.5, 0.87, -0.44, 13.48)"/><circle class="cls-5" cx="36.56" cy="27.69" r="0.75" transform="matrix(0.87, -0.5, 0.5, 0.87, -8.95, 21.99)"/><circle class="cls-6" cx="20.68" cy="11.81" r="0.75" transform="translate(0.11 23.82) rotate(-60)"/><circle class="cls-7" cx="40.82" cy="23.44" r="0.75" transform="translate(0.11 47.07) rotate(-60)"/><circle class="cls-8" cx="19.13" cy="17.63" r="0.75"/><circle class="cls-9" cx="42.38" cy="17.63" r="0.75"/><circle class="cls-10" cx="20.68" cy="23.44" r="0.75" transform="translate(-8.95 13.48) rotate(-30)"/><circle class="cls-11" cx="40.82" cy="11.81" r="0.75" transform="translate(-0.44 21.99) rotate(-30)"/><circle class="cls-12" cx="24.94" cy="27.69" r="0.75" transform="translate(-11.51 35.44) rotate(-60)"/><circle class="cls-13" cx="36.56" cy="7.56" r="0.75" transform="translate(11.74 35.44) rotate(-60)"/><rect class="cls-14" x="29.63" y="12.88" width="4.46" height="6.33"/><path class="cls-15" d="M26.92,30.93h7.84V19.31L26.92,15Z"/><path class="cls-16" d="M34.52,18a3,3,0,0,0-.63-.94,3.59,3.59,0,0,0-.87-.64,8.67,8.67,0,0,0-.94-.42l-.9-.34a5.11,5.11,0,0,1-.73-.33A1.43,1.43,0,0,1,30,15a.67.67,0,0,1-.13-.43.77.77,0,0,1,.06-.31A.57.57,0,0,1,30.1,14a1.05,1.05,0,0,1,.37-.17,3.13,3.13,0,0,1,1.43,0,5.61,5.61,0,0,1,.66.22l.49.22c.37.19.61.19.8.06a.59.59,0,0,0,.22-.3,1.3,1.3,0,0,0,.07-.36q0-.18,0-.46c0-.14,0-.26,0-.36a2.19,2.19,0,0,0,0-.3,1,1,0,0,0-.09-.27,1,1,0,0,0-.18-.24,1.28,1.28,0,0,0-.36-.23L33,11.68a4.73,4.73,0,0,0-.53-.15l-.17,0,.13-1.28a.9.9,0,0,0,0-.29.57.57,0,0,0-.3-.34,1.19,1.19,0,0,0-.38-.11,4.07,4.07,0,0,0-.89,0,1.09,1.09,0,0,0-.33.09.62.62,0,0,0-.26.22.65.65,0,0,0-.09.27v.12A1.87,1.87,0,0,1,29,11.73l-.09,0a3.41,3.41,0,0,0-1.08.7,3,3,0,0,0-.69,1,3.4,3.4,0,0,0-.24,1.28,3.46,3.46,0,0,0,.23,1.33,3,3,0,0,0,.63,1,3.75,3.75,0,0,0,.86.64,8.07,8.07,0,0,0,.93.43l.89.33a4.54,4.54,0,0,1,.72.32,1.53,1.53,0,0,1,.44.36.67.67,0,0,1,.12.43.79.79,0,0,1-.33.67,2.07,2.07,0,0,1-1.23.29,3.88,3.88,0,0,1-1-.11,4.79,4.79,0,0,1-.73-.26,5.49,5.49,0,0,1-.5-.26.77.77,0,0,0-.85-.09.65.65,0,0,0-.26.31,1.37,1.37,0,0,0-.09.39c0,.13,0,.3,0,.5a3.08,3.08,0,0,0,.05.64.93.93,0,0,0,.24.47,1.57,1.57,0,0,0,.37.26,4.11,4.11,0,0,0,.49.22,5.86,5.86,0,0,0,.62.19l.36.08-.14,1.32a.67.67,0,0,0,0,.37.6.6,0,0,0,.3.32,1.23,1.23,0,0,0,.36.11,3.31,3.31,0,0,0,.49,0,2.66,2.66,0,0,0,.4,0,1.31,1.31,0,0,0,.31-.08.58.58,0,0,0,.29-.24.69.69,0,0,0,.09-.27v-.06a2.09,2.09,0,0,1,1.39-1.73h0a4,4,0,0,0,1.25-.74,3.28,3.28,0,0,0,.82-1.12,3.57,3.57,0,0,0,.29-1.45A3.28,3.28,0,0,0,34.52,18Z"/><path class="cls-17" d="M30.36,27.49H20.74a.63.63,0,0,1-.58-.88l2-4.56a3.31,3.31,0,0,0,.27-1.37,2,2,0,0,0-3.59-1.23L10.68,28.8A3.46,3.46,0,0,1,8.07,30H5.5V43.74H24.35a4.46,4.46,0,0,0,4.37-3.58l1.54-6.65a1.63,1.63,0,0,1,1.07-1.16A2.5,2.5,0,0,0,33,29.86,2.6,2.6,0,0,0,30.36,27.49Z"/><path class="cls-18" d="M30.36,27.49h-9.5a14,14,0,0,0,11.73,3.87A2.49,2.49,0,0,0,33,29.86,2.6,2.6,0,0,0,30.36,27.49Z"/><path class="cls-19" d="M20.14,26.74a.58.58,0,0,1,0-.12l2-4.56a3.31,3.31,0,0,0,.27-1.37,2,2,0,0,0-3.59-1.23l-1.68,1.94A14.21,14.21,0,0,0,20.14,26.74Z"/><path class="cls-20" d="M4,28.75H5.5a0,0,0,0,1,0,0V45a0,0,0,0,1,0,0H4a1,1,0,0,1-1-1V29.74A1,1,0,0,1,4,28.75Z" transform="translate(8.5 73.74) rotate(180)"/></svg>