<?xml version="1.0" encoding="utf-8"?>
<!-- Generator: Adobe Illustrator 23.0.3, SVG Export Plug-In . SVG Version: 6.00 Build 0)  -->
<svg version="1.1" xmlns="http://www.w3.org/2000/svg" xmlns:xlink="http://www.w3.org/1999/xlink" x="0px" y="0px"
	 viewBox="0 0 256 256" style="enable-background:new 0 0 256 256;" xml:space="preserve">
<style type="text/css">
	.st0{fill:#878787;}
	.st1{fill:#F2E1D6;}
	.st2{fill:#FFFFFF;}
	.st3{fill:#F0C020;}
	.st4{fill:#F9E5AF;}
	.st5{fill:#72C1E8;}
	.st6{fill:#C5E5FF;}
	.st7{fill:#13BF6D;}
	.st8{fill:#76FFBA;}
	.st9{fill:#EFEFEF;}
	.st10{fill:#FC5D3D;}
	.st11{fill:#FFCBC2;}
	.st12{fill:#FFB69F;}
	.st13{fill:#AFAFAF;}
	.st14{fill:#7C7B7A;}
	.st15{fill:#D6C0B4;}
	.st16{fill:#7A7380;}
	.st17{fill:#F0AB20;}
	.st18{fill:#FBE0E2;}
	.st19{fill:#4C4945;}
	.st20{fill:#68B0D4;}
	.st21{fill:#B35034;}
	.st22{fill:#EDAF85;}
	.st23{fill:#139C6D;}
</style>
<g id="Layer_2">
</g>
<g id="Layer_1">
	<g>
		<g>
			<g>
				<path class="st5" d="M128,7.332c-60.596,0-109.709,10.663-109.709,23.82v193.694c0,2.146,1.307,4.226,3.757,6.203
					c12.57,10.148,55.24,17.616,105.952,17.616c53.782,0,98.518-8.4,107.899-19.487c1.188-1.405,1.809-2.853,1.809-4.332V31.151
					C237.709,17.994,188.596,7.332,128,7.332z"/>
			</g>
			<g>
				<path class="st6" d="M38.475,29.939c-0.41-1.318,0.327-2.719,1.646-3.129c7.532-2.341,36.131-9.978,87.88-9.978
					c32.444,0,55.526,3.005,69.177,5.526c1.357,0.251,2.255,1.555,2.004,2.913c-0.25,1.357-1.554,2.254-2.912,2.004
					c-13.445-2.483-36.203-5.443-68.269-5.443c-51.045,0-79.034,7.465-86.396,9.752C40.298,31.993,38.887,31.267,38.475,29.939z
					 M210.414,30.431c-1.417-0.384-2.925-0.765-4.48-1.134c-1.344-0.318-2.175-1.665-1.856-3.009
					c0.318-1.343,1.663-2.176,3.009-1.856c1.607,0.38,3.167,0.775,4.635,1.173c1.333,0.361,2.121,1.734,1.76,3.067
					C213.12,30.003,211.75,30.792,210.414,30.431z"/>
			</g>
			<g>
				<path class="st6" d="M128,239.165c-56.999,0-91.068-9.092-99.154-14.823c-0.661-0.469-1.054-1.229-1.054-2.04V55.49
					c0-1.381,1.119-2.5,2.5-2.5s2.5,1.119,2.5,2.5v165.426c8.254,4.586,40.581,13.249,95.208,13.249
					c48.202,0,75.515-6.529,85.02-9.335c1.325-0.39,2.715,0.366,3.105,1.689c0.392,1.324-0.365,2.715-1.689,3.105
					C204.722,232.493,176.854,239.165,128,239.165z M220.856,224.875c-0.601-1.243-0.08-2.738,1.163-3.338
					c0.932-0.45,1.687-0.878,2.244-1.273c1.126-0.798,2.687-0.533,3.485,0.594c0.798,1.126,0.532,2.687-0.595,3.485
					c-0.783,0.555-1.779,1.126-2.959,1.696C222.955,226.638,221.459,226.121,220.856,224.875z"/>
			</g>
			<g>
				<circle class="st7" cx="128" cy="151.402" r="72.904"/>
			</g>
			<g>
				<path class="st8" d="M127.968,216.031c-1.215,0-2.447-0.035-3.661-0.104c-1.378-0.078-2.433-1.259-2.354-2.638
					c0.079-1.378,1.26-2.422,2.638-2.354c1.12,0.063,2.256,0.096,3.377,0.096c33.077,0,59.659-26.64,59.659-59.628
					c0-15.956-6.194-30.937-17.442-42.185c-0.977-0.976-0.977-2.559,0-3.535c0.977-0.977,2.559-0.977,3.535,0
					c12.192,12.192,18.907,28.429,18.907,45.72C192.627,187.104,163.862,216.031,127.968,216.031z M114.016,214.513
					c-2.662-0.586-5.312-1.348-7.876-2.265c-1.3-0.465-1.977-1.896-1.512-3.196c0.464-1.3,1.895-1.979,3.196-1.512
					c2.366,0.846,4.811,1.549,7.268,2.09c1.349,0.297,2.201,1.631,1.904,2.979C116.697,213.962,115.359,214.81,114.016,214.513z"/>
			</g>
			<g>
				<path class="st9" d="M180.39,151.416c0,29.005-23.549,52.391-52.39,52.391c-28.885,0-52.39-23.429-52.39-52.391
					c0-28.956,23.461-52.417,52.39-52.417S180.39,122.459,180.39,151.416z"/>
			</g>
			<path class="st10" d="M150.021,143.839h-44.042c-2.121,0-3.841,1.72-3.841,3.841v31.029c0,2.121,1.72,3.841,3.841,3.841h44.042
				c2.121,0,3.841-1.72,3.841-3.841V147.68C153.862,145.558,152.142,143.839,150.021,143.839z"/>
			<g>
				<path class="st11" d="M143,174.748h-2.5c-1.381,0-2.5-1.119-2.5-2.5s1.119-2.5,2.5-2.5h2.5c1.381,0,2.5,1.119,2.5,2.5
					S144.381,174.748,143,174.748z M130.5,174.748h-19.75c-1.381,0-2.5-1.119-2.5-2.5v-18.25c0-1.381,1.119-2.5,2.5-2.5
					s2.5,1.119,2.5,2.5v15.75h17.25c1.381,0,2.5,1.119,2.5,2.5S131.881,174.748,130.5,174.748z"/>
			</g>
		</g>
		<circle cx="237.71" cy="76.768" r="2.5"/>
		<path d="M42.14,242.268c1.464,0.347,2.731-0.535,3.06-1.77c0.356-1.361-0.45-2.71-1.77-3.06c-1.32-0.36-2.71,0.46-3.06,1.77
			C40.015,240.542,40.792,241.895,42.14,242.268z"/>
		<path d="M240.21,66.758v-35.61c0-0.007-0.002-0.014-0.002-0.021C240.14,8.568,151.163,4.832,128,4.832
			c-22.721,0-112.119,3.679-112.207,26.288c0,0.01-0.003,0.019-0.003,0.029v193.7c0.02,2.97,1.66,5.76,4.86,8.29
			c2.77,2.17,6.6,4.16,11.72,6.06c1.244,0.49,2.725-0.164,3.21-1.47c0.494-1.295-0.189-2.742-1.47-3.21
			c-4.5-1.67-8.08-3.5-10.36-5.31c-2.47-1.96-2.97-3.45-2.96-4.36v-55.955c7.885,6.156,23.786,10.158,38.088,12.648
			C70.75,208.729,97.61,226.808,128,226.808c30.274,0,57.204-17.975,69.121-45.267c14.302-2.49,30.204-6.493,38.089-12.648v55.955
			c0,0.96-0.51,1.97-1.55,3.08c-14.199,15.337-84.764,18.24-105.69,18.24c-28.04,0-54.65-2.31-74.94-6.48
			c-1.34-0.28-2.69,0.62-2.96,1.94c-0.269,1.346,0.578,2.679,1.95,2.95c20.62,4.25,47.61,6.59,75.98,6.59
			c23.873,0,93.271-2.918,109.3-19.81c1.9-2,2.91-4.26,2.91-6.51V86.768c0-1.37-1.12-2.49-2.5-2.49s-2.5,1.12-2.5,2.49v9.4
			c0,4.957-13.136,11.983-42.398,16.69c-6.58-11.048-15.917-20.287-27.043-26.73c-1.16-0.67-2.75-0.24-3.42,0.91
			c-0.673,1.162-0.306,2.718,0.91,3.41c21.68,12.58,35.14,35.93,35.14,60.95c0,39.201-31.79,70.41-70.399,70.41
			c-38.885,0-70.39-31.466-70.41-70.41c0.02-38.576,31.189-70.4,70.41-70.4c5.91,0,11.78,0.73,17.45,2.18
			c1.319,0.33,2.71-0.5,3.04-1.81c0.35-1.318-0.467-2.698-1.79-3.03c-0.011,0-0.011-0.01-0.011-0.01
			c-6.08-1.54-12.359-2.33-18.689-2.33c-27.166,0-51.455,14.42-64.816,36.86c-29.259-4.707-42.394-11.733-42.394-16.69V39.556
			C40.034,54.568,102.807,57.47,128,57.47c24.155,0,88.152-3.048,107.21-17.914v27.212c0,1.38,1.12,2.5,2.5,2.5s2.5-1.12,2.5-2.5
			V66.758z M195.367,117.509c15.286-2.553,31.789-6.631,39.843-12.934v55.933c0,4.494-11.167,10.909-35.955,15.564
			c2.74-7.906,4.145-16.183,4.145-24.674C203.399,139.594,200.633,127.976,195.367,117.509z M128,9.832
			c66.423,0,107.209,12.417,107.209,21.319c0,0.003-0.001,0.007-0.001,0.01c-0.044,9.489-43.011,21.307-107.029,21.307
			c-62.029,0-107.311-11.284-107.387-21.299c0-0.006-0.001-0.012-0.001-0.018C20.792,22.249,61.577,9.832,128,9.832z M60.642,117.51
			c-5.503,10.93-8.041,22.345-8.052,33.888c0.008,8.491,1.414,16.769,4.155,24.674c-24.788-4.655-35.955-11.07-35.955-15.564
			v-55.933C28.846,110.879,45.353,114.958,60.642,117.51z"/>
		<path d="M156.5,81.568c-1.26-0.51-2.75,0.13-3.26,1.37c-0.521,1.28,0.09,2.74,1.369,3.26c1.181,0.512,2.705-0.019,3.261-1.37
			C158.372,83.602,157.832,82.127,156.5,81.568z"/>
		<path d="M109.499,136.257v5.083h-3.52c-3.497,0-6.341,2.844-6.341,6.341v31.029c0,3.497,2.844,6.341,6.341,6.341h44.042
			c3.497,0,6.342-2.844,6.342-6.341V147.68c0-3.497-2.845-6.341-6.342-6.341h-3.519v-5.083c0-10.202-8.3-18.501-18.502-18.501
			C117.798,117.755,109.499,126.055,109.499,136.257z M151.362,147.68v31.029c0,0.739-0.602,1.341-1.342,1.341h-44.042
			c-0.739,0-1.341-0.602-1.341-1.341V147.68c0-0.739,0.602-1.341,1.341-1.341c32.507,0,23.54,0,44.042,0
			C150.761,146.339,151.362,146.941,151.362,147.68z M141.502,136.257v5.083h-27.003v-5.083c0-7.445,6.057-13.501,13.501-13.501
			C135.445,122.755,141.502,128.812,141.502,136.257z"/>
		<path d="M128,96.498c-30.403,0-54.89,24.662-54.89,54.92c0,30.638,24.921,54.89,54.88,54.89v-0.05l0.02,0.05
			c29.964,0,54.88-24.277,54.88-54.89C182.89,121.045,158.294,96.498,128,96.498z M177.89,151.418
			c0,27.394-22.171,49.89-49.89,49.89c-27.709,0-49.89-22.483-49.89-49.89c0-27.571,22.285-49.92,49.89-49.92
			C155.554,101.498,177.89,123.813,177.89,151.418z"/>
	</g>
</g>
</svg>
