<?xml version="1.0" encoding="utf-8"?>
<!-- Generator: Adobe Illustrator 18.0.0, SVG Export Plug-In . SVG Version: 6.00 Build 0)  -->
<!DOCTYPE svg PUBLIC "-//W3C//DTD SVG 1.1//EN" "http://www.w3.org/Graphics/SVG/1.1/DTD/svg11.dtd">
<svg version="1.1" id="ecommerce_1_" xmlns="http://www.w3.org/2000/svg" xmlns:xlink="http://www.w3.org/1999/xlink" x="0px"
	 y="0px" viewBox="0 0 115 115" style="enable-background:new 0 0 115 115;" xml:space="preserve">
<style type="text/css">
	.st0{fill:#FFEEAD;}
	.st1{fill:#C9B77D;}
	.st2{fill:#99734A;}
	.st3{fill:#FF6F69;}
	.st4{fill:#96CEB4;}
	.st5{fill:none;}
	.st6{fill:#AA9865;}
	.st7{fill:#71A58A;}
	.st8{fill:#FFCC5C;}
	.st9{fill:#825E3B;}
	.st10{fill:#639376;}
	.st11{fill:#E05858;}
	.st12{fill:#C1821E;}
	.st13{fill:#D6A041;}
	.st14{fill:#B28559;}
	.st15{fill:#BF4343;}
	.st16{fill:#D3C089;}
	.st17{fill:#7C5C3C;}
	.st18{fill:#FDCC5C;}
	.st19{fill:#FFFFFF;}
</style>
<g id="fast_delivery_1_">
	<g>
		<g>
			<g>
				<g>
					<path class="st0" d="M68.838,44.634H22.365c-3.201,0-5.796,2.595-5.796,5.796v35.114c0,3.201,2.595,5.796,5.796,5.796h46.473
						c3.201,0,5.796-2.595,5.796-5.796V50.43C74.634,47.229,72.039,44.634,68.838,44.634z"/>
				</g>
			</g>
			<g>
				<g>
					<g>
						<path class="st3" d="M109.726,76.724h-2.218v20.704h5.993V80.5C113.501,78.414,111.811,76.724,109.726,76.724z"/>
					</g>
				</g>
				<g>
					<g>
						<path class="st11" d="M15.934,80.519v9.154c0,5.336,4.275,9.663,9.549,9.663h49.189V80.519H15.934z"/>
					</g>
				</g>
				<g>
					<g>
						<path class="st3" d="M102.008,52.546H80.042c-2.966,0-5.37,2.404-5.37,5.37v41.421h27.602c3.607,0,6.531-2.924,6.531-6.531
							V59.344C108.806,55.589,105.762,52.546,102.008,52.546z"/>
					</g>
				</g>
				<g>
					<g>
						<rect x="15.934" y="96.568" class="st4" width="87.92" height="4.426"/>
					</g>
				</g>
				<g>
					<g>
						<path class="st4" d="M112.036,88.529h-8.317c-1.637,0-2.964,1.327-2.964,2.964v6.537c0,1.637,1.327,2.964,2.964,2.964h8.317
							c1.637,0,2.964-1.327,2.964-2.964v-6.537C115,89.856,113.673,88.529,112.036,88.529z"/>
					</g>
				</g>
				<g>
					<g>
						<path class="st4" d="M24.368,88.529h-8.317c-1.637,0-2.964,1.327-2.964,2.964v6.537c0,1.637,1.327,2.964,2.964,2.964h8.317
							c1.637,0,2.964-1.327,2.964-2.964v-6.537C27.332,89.856,26.005,88.529,24.368,88.529z"/>
					</g>
				</g>
				<g>
					<g>
						<path class="st2" d="M100.613,59.249c-1.766,0-3.125,1.477-2.879,3.13l1.779,11.979c0.201,1.357,1.43,2.366,2.879,2.366h6.414
							V59.249H100.613z"/>
					</g>
				</g>
				<g>
					<g>
						<path class="st2" d="M96.914,74.258l-1.892-13.13c-0.155-1.077-1.128-1.88-2.278-1.88H82.501c-1.27,0-2.299,0.973-2.299,2.173
							v13.129c0,1.2,1.029,2.173,2.299,2.173h12.135C96.029,76.724,97.102,75.563,96.914,74.258z"/>
					</g>
				</g>
				<g>
					<g>
						<path class="st0" d="M88.122,78.508h-6.177c-0.605,0-1.095,0.49-1.095,1.095c0,0.605,0.49,1.095,1.095,1.095h6.177
							c0.605,0,1.095-0.49,1.095-1.095C89.217,78.998,88.727,78.508,88.122,78.508z"/>
					</g>
				</g>
				<g>
					<g>
						<g>
							<path class="st7" d="M52.459,99.173c-1.537-4.954-6.156-8.552-11.615-8.552s-10.078,3.598-11.615,8.552
								c-0.555,1.788,0.834,3.597,2.706,3.597h17.817C51.625,102.77,53.014,100.962,52.459,99.173z"/>
						</g>
					</g>
					<g>
						<g>
							<circle class="st2" cx="40.844" cy="102.782" r="8.584"/>
						</g>
					</g>
					<g>
						<g>
							<circle class="st0" cx="40.844" cy="102.782" r="3.193"/>
						</g>
					</g>
				</g>
				<g>
					<g>
						<g>
							<path class="st7" d="M100.098,99.173c-1.537-4.954-6.156-8.552-11.615-8.552c-5.459,0-10.078,3.598-11.615,8.552
								c-0.555,1.788,0.834,3.597,2.706,3.597h17.817C99.264,102.77,100.653,100.962,100.098,99.173z"/>
						</g>
					</g>
					<g>
						<g>
							<circle class="st2" cx="88.483" cy="102.782" r="8.584"/>
						</g>
					</g>
					<g>
						<g>
							<circle class="st0" cx="88.483" cy="102.782" r="3.193"/>
						</g>
					</g>
				</g>
			</g>
			<g>
				<g>
					<path class="st4" d="M73.413,78.357H16.761c-0.892,0-1.622,0.73-1.622,1.622c0,0.892,0.73,1.622,1.622,1.622h56.652
						c0.892,0,1.622-0.73,1.622-1.622C75.035,79.087,74.305,78.357,73.413,78.357z"/>
				</g>
			</g>
		</g>
	</g>
	<g>
		<g>
			<path class="st1" d="M68.838,44.634H22.365c-3.201,0-5.796,2.595-5.796,5.796v20.065c5.51,3.42,12.007,5.4,18.969,5.4
				c18.107,0,33.09-13.36,35.64-30.759C70.461,44.818,69.672,44.634,68.838,44.634z"/>
		</g>
	</g>
	<g>
		<g>
			<g>
				<g>
					<circle class="st7" cx="34.24" cy="37.875" r="34.24"/>
				</g>
			</g>
			<g>
				<g>
					<circle class="st3" cx="34.24" cy="37.875" r="31.075"/>
				</g>
			</g>
			<g>
				<g>
					<circle class="st1" cx="34.24" cy="37.875" r="26.98"/>
				</g>
			</g>
			<g>
				<g>
					<circle class="st0" cx="34.24" cy="37.875" r="25.623"/>
				</g>
			</g>
			<g>
				<g>
					<g>
						<path class="st8" d="M34.241,13.894v23.981l16.957-16.957C46.858,16.578,40.863,13.894,34.241,13.894z"/>
					</g>
				</g>
				<g>
					<g>
						<path class="st3" d="M51.197,20.918L34.241,37.875l20.272,12.804c2.345-3.705,3.708-8.094,3.708-12.804
							C58.221,31.253,55.537,25.258,51.197,20.918z"/>
					</g>
				</g>
			</g>
			<g>
				<g>
					<g>
						<g>
							<path class="st3" d="M34.378,52.706c-0.506,0-0.92,0.414-0.92,0.92v6.442c0,0.506,0.414,0.92,0.92,0.92
								c0.506,0,0.92-0.414,0.92-0.92v-6.442C35.299,53.12,34.884,52.706,34.378,52.706z"/>
						</g>
					</g>
					<g>
						<g>
							<path class="st3" d="M18.505,36.832h-6.442c-0.506,0-0.92,0.414-0.92,0.92c0,0.506,0.414,0.92,0.92,0.92h6.442
								c0.506,0,0.92-0.414,0.92-0.92C19.425,37.246,19.011,36.832,18.505,36.832z"/>
						</g>
					</g>
					<g>
						<g>
							<path class="st7" d="M21.453,23.525l-2.203-2.203c-0.358-0.358-0.944-0.358-1.301,0c-0.358,0.358-0.358,0.943,0,1.301
								l2.203,2.203c0.358,0.358,0.943,0.358,1.301,0S21.811,23.883,21.453,23.525z"/>
						</g>
					</g>
					<g>
						<g>
							<path class="st7" d="M50.808,52.881l-2.203-2.203c-0.358-0.358-0.943-0.358-1.301,0c-0.358,0.358-0.358,0.943,0,1.301
								l2.203,2.203c0.358,0.358,0.943,0.358,1.301,0C51.166,53.824,51.166,53.239,50.808,52.881z"/>
						</g>
					</g>
					<g>
						<g>
							<path class="st7" d="M21.453,50.678c-0.358-0.358-0.943-0.358-1.301,0l-2.203,2.203c-0.358,0.358-0.358,0.944,0,1.302
								c0.358,0.358,0.944,0.358,1.301,0l2.203-2.203C21.811,51.621,21.811,51.035,21.453,50.678z"/>
						</g>
					</g>
					<g>
						<g>
							<path class="st7" d="M16.962,29.619l-2.883-1.182c-0.468-0.192-1.009,0.034-1.2,0.502c-0.192,0.468,0.034,1.009,0.502,1.2
								l2.883,1.182c0.468,0.192,1.008-0.034,1.2-0.502C17.656,30.351,17.43,29.811,16.962,29.619z"/>
						</g>
					</g>
					<g>
						<g>
							<path class="st7" d="M27.446,54.666c-0.468-0.192-1.009,0.034-1.2,0.502l-1.182,2.883c-0.192,0.468,0.034,1.009,0.503,1.2
								c0.468,0.192,1.008-0.034,1.2-0.502l1.182-2.883C28.14,55.398,27.914,54.858,27.446,54.666z"/>
						</g>
					</g>
					<g>
						<g>
							<path class="st7" d="M27.768,19.703l-1.21-2.871c-0.197-0.466-0.739-0.687-1.205-0.491c-0.466,0.197-0.687,0.739-0.49,1.205
								l1.21,2.871c0.197,0.466,0.739,0.687,1.205,0.49C27.744,20.712,27.965,20.169,27.768,19.703z"/>
						</g>
					</g>
					<g>
						<g>
							<path class="st7" d="M43.895,57.957l-1.21-2.871c-0.197-0.466-0.739-0.687-1.205-0.491c-0.466,0.197-0.687,0.739-0.491,1.205
								l1.21,2.871c0.197,0.466,0.739,0.687,1.205,0.49C43.871,58.966,44.092,58.424,43.895,57.957z"/>
						</g>
					</g>
					<g>
						<g>
							<path class="st7" d="M17.534,44.853c-0.197-0.466-0.739-0.687-1.205-0.49l-2.871,1.21c-0.466,0.197-0.687,0.739-0.49,1.205
								c0.197,0.466,0.739,0.687,1.205,0.49l2.871-1.21C17.51,45.862,17.731,45.319,17.534,44.853z"/>
						</g>
					</g>
				</g>
				<g>
					<g>
						<path class="st3" d="M34.378,14.762c-0.506,0-0.92,0.414-0.92,0.92v6.441c0,0.506,0.414,0.92,0.92,0.92
							c0.506,0,0.92-0.414,0.92-0.92v-6.441C35.299,15.176,34.884,14.762,34.378,14.762z"/>
					</g>
				</g>
				<g>
					<g>
						<path class="st7" d="M56.418,36.832h-6.442c-0.506,0-0.92,0.414-0.92,0.92c0,0.506,0.414,0.92,0.92,0.92h6.442
							c0.506,0,0.92-0.414,0.92-0.92C57.338,37.246,56.924,36.832,56.418,36.832z"/>
					</g>
				</g>
				<g>
					<g>
						<path class="st0" d="M50.808,21.322c-0.358-0.358-0.943-0.358-1.301,0l-2.203,2.203c-0.358,0.358-0.358,0.943,0,1.301
							c0.358,0.358,0.943,0.358,1.301,0l2.203-2.203C51.166,22.266,51.166,21.68,50.808,21.322z"/>
					</g>
				</g>
				<g>
					<g>
						<path class="st0" d="M55.376,45.364l-2.883-1.182c-0.468-0.192-1.009,0.034-1.2,0.502c-0.192,0.468,0.034,1.009,0.502,1.2
							l2.883,1.182c0.468,0.192,1.008-0.034,1.2-0.503C56.07,46.096,55.844,45.556,55.376,45.364z"/>
					</g>
				</g>
				<g>
					<g>
						<path class="st7" d="M43.191,16.252c-0.468-0.192-1.009,0.034-1.2,0.502l-1.182,2.883c-0.192,0.468,0.034,1.009,0.502,1.2
							c0.468,0.192,1.009-0.034,1.2-0.502l1.182-2.883C43.885,16.984,43.659,16.444,43.191,16.252z"/>
					</g>
				</g>
				<g>
					<g>
						<path class="st0" d="M55.789,28.726c-0.197-0.466-0.739-0.687-1.205-0.491l-2.871,1.21c-0.466,0.197-0.687,0.739-0.49,1.205
							c0.197,0.466,0.739,0.687,1.205,0.49l2.871-1.21C55.765,29.735,55.986,29.192,55.789,28.726z"/>
					</g>
				</g>
				<g>
					<g>
						<circle class="st7" cx="34.24" cy="37.875" r="4.695"/>
					</g>
				</g>
			</g>
		</g>
	</g>
</g>
</svg>
