<svg xmlns="http://www.w3.org/2000/svg" viewBox="0 0 64 64"><g id="_12-Circle" data-name="12-Circle"><path d="M1,18.88l6.16,1.43a24.451,24.451,0,0,0-.73,2.98L1,22Z" style="fill:#319aeb"/><path d="M23,24l-1,3-7.77-1.85a17.781,17.781,0,0,1,.75-3.02Z" style="fill:#319aeb"/><path d="M25.05,44.6l-4.9,6.54a25.717,25.717,0,0,1-3.41-2.09l4.92-6.32A17.733,17.733,0,0,0,25.05,44.6Z" style="fill:#319aeb"/><path d="M41.82,52.08,44,60.37,41.4,62l-2.36-8.97A23.946,23.946,0,0,0,41.82,52.08Z" style="fill:#319aeb"/><path d="M38,38l1.76,6.24A16.364,16.364,0,0,1,37,45.29L35.08,38Z" style="fill:#319aeb"/><path d="M49.29,33h8.22a27.471,27.471,0,0,1-.77,3H48.12A17.6,17.6,0,0,0,49.29,33Z" style="fill:#319aeb"/><path d="M26,11l.01.03a17.652,17.652,0,0,0-3.37,1.6L18.85,5.58a25.661,25.661,0,0,1,3.57-1.75Z" style="fill:#319aeb"/><path d="M49.3,23.04,44,29l-1-3.06,5.04-6.1A16.771,16.771,0,0,1,49.3,23.04Z" style="fill:#319aeb"/><path d="M60,11l-4.76,5.35a25.1,25.1,0,0,0-1.79-3.05L57,9Z" style="fill:#319aeb"/><path d="M15,7l8,17-8.02-1.87A18.348,18.348,0,0,0,14,28a17.97,17.97,0,0,0,7.66,14.73l-4.92,6.32A26,26,0,0,1,6.43,23.29a24.451,24.451,0,0,1,.73-2.98L1,18.88Z" style="fill:#48befd"/><path d="M24.47,52.89,35.08,38,37,45.29a16.364,16.364,0,0,0,2.76-1.05A17.954,17.954,0,0,0,48.12,36h8.62A26.018,26.018,0,0,1,41.82,52.08a23.946,23.946,0,0,1-2.78.95L41.4,62,24,53.54l.46-.65Z" style="fill:#48befd"/><path d="M60,11l3,18H44l5.3-5.96a16.771,16.771,0,0,0-1.26-3.2A17.985,17.985,0,0,0,32,10a17.737,17.737,0,0,0-5.99,1.03L26,11,22.42,3.83A26,26,0,0,1,53.45,13.3a25.1,25.1,0,0,1,1.79,3.05Z" style="fill:#48befd"/><path d="M50.736,15a2,2,0,0,1-1.561-.75A21.908,21.908,0,0,0,32,6a22.283,22.283,0,0,0-2.752.17,2,2,0,0,1-.5-3.969A26.213,26.213,0,0,1,32,2a25.887,25.887,0,0,1,20.3,9.749A2,2,0,0,1,50.736,15Z" style="fill:#6bdcff"/><path d="M14,45.875a1.994,1.994,0,0,1-1.5-.677A25.969,25.969,0,0,1,6,28a26.28,26.28,0,0,1,.359-4.332,2,2,0,0,1,3.946.664A22.039,22.039,0,0,0,15.5,42.551,2,2,0,0,1,14,45.875Z" style="fill:#6bdcff"/><path d="M45,50.178a2,2,0,0,1-1.087-3.68,22.12,22.12,0,0,0,7.644-8.416,2,2,0,0,1,3.554,1.836,26.124,26.124,0,0,1-9.028,9.94A1.99,1.99,0,0,1,45,50.178Z" style="fill:#6bdcff"/><line x1="24.47" y1="52.89" x2="24.46" y2="52.89" style="fill:none;stroke:#000;stroke-linejoin:round;stroke-width:2px"/><polyline points="42.588 55 44 60.37 41.4 62" style="fill:none;stroke:#000;stroke-linejoin:round;stroke-width:2px"/><polyline points="35.08 38 38 38 39.169 42" style="fill:none;stroke:#000;stroke-linejoin:round;stroke-width:2px"/><polyline points="44 29 43 25.94 46.255 22" style="fill:none;stroke:#000;stroke-linejoin:round;stroke-width:2px"/><polyline points="55 11.423 57 9 60 11" style="fill:none;stroke:#000;stroke-linejoin:round;stroke-width:2px"/><polyline points="1 18.88 1 22 4 22.713" style="fill:none;stroke:#000;stroke-linejoin:round;stroke-width:2px"/><polyline points="17 25.81 22 27 23 24" style="fill:none;stroke:#000;stroke-linejoin:round;stroke-width:2px"/><path d="M53,43.329q.525-.717,1-1.471" style="fill:none;stroke:#000;stroke-linejoin:round;stroke-width:2px"/><path d="M55.068,40a25.762,25.762,0,0,0,2.442-7H49.29a17.99,17.99,0,0,1-9.53,11.24A16.364,16.364,0,0,1,37,45.29L35.08,38,24.47,52.89h-.01l-.46.65L41.4,62l-2.36-8.97a23.946,23.946,0,0,0,2.78-.95A26.1,26.1,0,0,0,51.67,45" style="fill:none;stroke:#000;stroke-linejoin:round;stroke-width:2px"/><path d="M10.762,43q.588.831,1.238,1.611" style="fill:none;stroke:#000;stroke-linejoin:round;stroke-width:2px"/><path d="M13.242,46a26.032,26.032,0,0,0,6.908,5.14l4.9-6.54A17.97,17.97,0,0,1,14.23,25.15a17.781,17.781,0,0,1,.75-3.02L23,24,15,7,1,18.88l6.16,1.43a24.451,24.451,0,0,0-.73,2.98A26.024,26.024,0,0,0,9.479,41" style="fill:none;stroke:#000;stroke-linejoin:round;stroke-width:2px"/><path d="M26,2.7A25.609,25.609,0,0,0,18.85,5.58l3.79,7.05a17.986,17.986,0,0,1,25.4,7.21,16.771,16.771,0,0,1,1.26,3.2L44,29H63L60,11l-4.76,5.35a25.1,25.1,0,0,0-1.79-3.05A26.045,26.045,0,0,0,28,2.306" style="fill:none;stroke:#000;stroke-linejoin:round;stroke-width:2px"/><line x1="26" y1="11" x2="22.42" y2="3.83" style="fill:none;stroke:#000;stroke-linejoin:round;stroke-width:2px"/><line x1="56.74" y1="36" x2="48.12" y2="36" style="fill:none;stroke:#000;stroke-linejoin:round;stroke-width:2px"/><line x1="21.66" y1="42.73" x2="16.74" y2="49.05" style="fill:none;stroke:#000;stroke-linejoin:round;stroke-width:2px"/></g></svg>