<?xml version="1.0" encoding="utf-8"?>
<!-- Generator: Adobe Illustrator 16.0.0, SVG Export Plug-In . SVG Version: 6.00 Build 0)  -->
<!DOCTYPE svg PUBLIC "-//W3C//DTD SVG 1.1//EN" "http://www.w3.org/Graphics/SVG/1.1/DTD/svg11.dtd">
<svg version="1.1" id="icons" xmlns="http://www.w3.org/2000/svg" xmlns:xlink="http://www.w3.org/1999/xlink" x="0px" y="0px"
	 width="64px" height="64px" viewBox="0 0 64 64" enable-background="new 0 0 64 64" xml:space="preserve">
<g>
	<g>
		<path fill="#DA4453" d="M63,48.5c0,1.1-0.9,2-2,2H3c-1.1,0-2-0.9-2-2v-4c0,1.1,0.9,2,2,2h58c1.1,0,2-0.9,2-2V48.5z"/>
	</g>
	<g>
		<path fill="#DA4453" d="M63,40.5c0,1.1-0.9,2-2,2H3c-1.1,0-2-0.9-2-2v-4c0,1.1,0.9,2,2,2h12h46c1.1,0,2-0.9,2-2V40.5z"/>
	</g>
	<g>
		<path fill="#ED5565" d="M63,44.5c0,1.1-0.9,2-2,2H3c-1.1,0-2-0.9-2-2v-4c0,1.1,0.9,2,2,2h58c1.1,0,2-0.9,2-2V44.5z"/>
	</g>
	<g>
		<path fill="#FFCE54" d="M15,35.5v3H3c-1.1,0-2-0.9-2-2v-8v-4v-4v-5c0-1.1,0.9-2,2-2h12v3v4v3v5v3V35.5z"/>
	</g>
	<g>
		<path fill="#CCD1D9" d="M49.99,23.5v2h-8v-2c0-2.21,1.79-4,4-4S49.99,21.29,49.99,23.5z"/>
	</g>
	<g>
		<path fill="#AAB2BD" d="M45.99,19.5c-0.348,0-0.68,0.059-1.001,0.142c1.722,0.446,2.999,1.996,2.999,3.858v2h2.002v-2
			C49.99,21.29,48.2,19.5,45.99,19.5z"/>
	</g>
	<g>
		<circle fill="#ED5565" cx="32.5" cy="30" r="2.5"/>
	</g>
	<g>
		<circle fill="#ED5565" cx="24.5" cy="22" r="2.5"/>
	</g>
	<g>
		<path fill="#ED5565" d="M49.99,25.5v-2c0-2.21-1.79-4-4-4s-4,1.79-4,4v2H49.99z M63,28.5v8c0,1.1-0.9,2-2,2H15v-3v-4v-3v-5v-3v-4
			v-3h46c1.1,0,2,0.9,2,2v5v4V28.5z M35,30c0-1.38-1.12-2.5-2.5-2.5S30,28.62,30,30s1.12,2.5,2.5,2.5S35,31.38,35,30z M27,22
			c0-1.38-1.12-2.5-2.5-2.5S22,20.62,22,22s1.12,2.5,2.5,2.5S27,23.38,27,22z"/>
	</g>
	<g>
		<path fill="#F6BB42" d="M1,36.5v4c0,1.1,0.9,2,2,2h12v-4H3C1.9,38.5,1,37.6,1,36.5z"/>
	</g>
	<g>
		<path fill="#FFCE54" d="M1,40.5v4c0,1.1,0.9,2,2,2h12v-4H3C1.9,42.5,1,41.6,1,40.5z"/>
	</g>
	<g>
		<path fill="#F6BB42" d="M1,44.5v4c0,1.1,0.9,2,2,2h12v-4H3C1.9,46.5,1,45.6,1,44.5z"/>
	</g>
</g>
<g>
	<g>
		<path d="M61,39.501H3c-1.654,0-3-1.346-3-3V15.499c0-1.654,1.346-3,3-3h58c1.654,0,3,1.346,3,3v21.002
			C64,38.155,62.654,39.501,61,39.501z M3,14.499c-0.552,0-1,0.448-1,1v21.002c0,0.552,0.448,1,1,1h58c0.552,0,1-0.448,1-1V15.499
			c0-0.552-0.448-1-1-1H3z"/>
	</g>
	<g>
		<path d="M61,43.501H3c-1.654,0-3-1.346-3-3V20.5c0-0.553,0.447-1,1-1s1,0.447,1,1v20.001c0,0.552,0.448,1,1,1h58
			c0.552,0,1-0.448,1-1V20.5c0-0.553,0.447-1,1-1s1,0.447,1,1v20.001C64,42.155,62.654,43.501,61,43.501z"/>
	</g>
	<g>
		<path d="M61,47.501H3c-1.654,0-3-1.346-3-3V24.5c0-0.553,0.447-1,1-1s1,0.447,1,1v20.001c0,0.552,0.448,1,1,1h58
			c0.552,0,1-0.448,1-1V24.5c0-0.553,0.447-1,1-1s1,0.447,1,1v20.001C64,46.155,62.654,47.501,61,47.501z"/>
	</g>
	<g>
		<path d="M61,51.501H3c-1.654,0-3-1.346-3-3V28.5c0-0.553,0.447-1,1-1s1,0.447,1,1v20.001c0,0.552,0.448,1,1,1h58
			c0.552,0,1-0.448,1-1V28.5c0-0.553,0.447-1,1-1s1,0.447,1,1v20.001C64,50.155,62.654,51.501,61,51.501z"/>
	</g>
	<g>
		<path d="M15,21.499c-0.553,0-1-0.447-1-1v-4.002c0-0.553,0.447-1,1-1s1,0.447,1,1v4.002C16,21.052,15.553,21.499,15,21.499z"/>
	</g>
	<g>
		<path d="M15,29.502c-0.553,0-1-0.447-1-1v-5.003c0-0.553,0.447-1,1-1s1,0.447,1,1v5.003C16,29.055,15.553,29.502,15,29.502z"/>
	</g>
	<g>
		<path d="M15,36.504c-0.553,0-1-0.447-1-1v-4.002c0-0.553,0.447-1,1-1s1,0.447,1,1v4.002C16,36.057,15.553,36.504,15,36.504z"/>
	</g>
	<g>
		<path d="M6,34.501c-0.553,0-1-0.447-1-1V18.499c0-0.553,0.447-1,1-1s1,0.447,1,1v15.002C7,34.054,6.553,34.501,6,34.501z"/>
	</g>
	<g>
		<path d="M9,34.501c-0.553,0-1-0.447-1-1V18.499c0-0.553,0.447-1,1-1s1,0.447,1,1v15.002C10,34.054,9.553,34.501,9,34.501z"/>
	</g>
	<g>
		<path d="M24.499,25.499c-1.93,0-3.5-1.57-3.5-3.5s1.57-3.5,3.5-3.5s3.5,1.57,3.5,3.5S26.429,25.499,24.499,25.499z M24.499,20.499
			c-0.827,0-1.5,0.673-1.5,1.5s0.673,1.5,1.5,1.5s1.5-0.673,1.5-1.5S25.326,20.499,24.499,20.499z"/>
	</g>
	<g>
		<path d="M32.501,33.501c-1.93,0-3.5-1.57-3.5-3.5s1.57-3.5,3.5-3.5s3.5,1.57,3.5,3.5S34.431,33.501,32.501,33.501z M32.501,28.501
			c-0.827,0-1.5,0.673-1.5,1.5s0.673,1.5,1.5,1.5s1.5-0.673,1.5-1.5S33.328,28.501,32.501,28.501z"/>
	</g>
	<g>
		<path d="M22,33.5c-0.256,0-0.512-0.098-0.707-0.293c-0.391-0.391-0.391-1.023,0-1.414l13.001-13.001
			c0.391-0.391,1.023-0.391,1.414,0s0.391,1.023,0,1.414L22.707,33.207C22.512,33.402,22.256,33.5,22,33.5z"/>
	</g>
	<g>
		<path d="M57,30.501H41c-0.553,0-1-0.447-1-1s0.447-1,1-1h16c0.553,0,1,0.447,1,1S57.553,30.501,57,30.501z"/>
	</g>
	<g>
		<path d="M49,33.501h-8c-0.553,0-1-0.447-1-1s0.447-1,1-1h8c0.553,0,1,0.447,1,1S49.553,33.501,49,33.501z"/>
	</g>
	<g>
		<g>
			<path d="M49.992,24.501c-0.553,0-1-0.447-1-1c0-1.654-1.346-3-3-3s-3,1.346-3,3c0,0.553-0.447,1-1,1s-1-0.447-1-1
				c0-2.757,2.243-5,5-5s5,2.243,5,5C50.992,24.054,50.545,24.501,49.992,24.501z"/>
		</g>
		<g>
			<path d="M50.992,26.501h-10c-0.553,0-1-0.447-1-1s0.447-1,1-1h10c0.553,0,1,0.447,1,1S51.545,26.501,50.992,26.501z"/>
		</g>
		<g>
			<path d="M41.992,26.501c-0.553,0-1-0.447-1-1v-2c0-0.553,0.447-1,1-1s1,0.447,1,1v2C42.992,26.054,42.545,26.501,41.992,26.501z"
				/>
		</g>
		<g>
			<path d="M49.992,26.501c-0.553,0-1-0.447-1-1v-2c0-0.553,0.447-1,1-1s1,0.447,1,1v2C50.992,26.054,50.545,26.501,49.992,26.501z"
				/>
		</g>
		<g>
			<path d="M45.992,20.501c-0.553,0-1-0.447-1-1V18.5c0-0.553,0.447-1,1-1s1,0.447,1,1v1.001
				C46.992,20.054,46.545,20.501,45.992,20.501z"/>
		</g>
	</g>
</g>
</svg>
