<?xml version="1.0" encoding="utf-8"?>
<!-- Generator: Adobe Illustrator 24.0.0, SVG Export Plug-In . SVG Version: 6.00 Build 0)  -->
<svg version="1.1" xmlns="http://www.w3.org/2000/svg" xmlns:xlink="http://www.w3.org/1999/xlink" x="0px" y="0px"
	 viewBox="0 0 256 256" enable-background="new 0 0 256 256" xml:space="preserve">
<g id="Layer_1">
</g>
<g id="Layer_2">
</g>
<g id="Layer_3">
	<g>
		<g>
			<g>
				<path fill="#F5C84C" d="M37.8,141.85c-4.5-0.8-8-4.3-8.9-8.7c0-0.2-0.4-0.2-0.4,0c-0.9,4.4-4.4,7.9-8.9,8.7
					c-0.2,0-0.2,0.3,0,0.4c4.5,0.8,8,4.3,8.9,8.7c0,0.2,0.4,0.2,0.4,0c0.9-4.4,4.4-7.9,8.9-8.7C38,142.15,38,141.85,37.8,141.85z"/>
			</g>
		</g>
		<g>
			<g>
				<path fill="#FC657E" d="M171.89,21.854c-3.289-0.585-5.847-3.143-6.505-6.359c0-0.146-0.292-0.146-0.292,0
					c-0.658,3.216-3.216,5.774-6.505,6.359c-0.146,0-0.146,0.219,0,0.292c3.289,0.585,5.847,3.143,6.505,6.359
					c0,0.146,0.292,0.146,0.292,0c0.658-3.216,3.216-5.774,6.505-6.359C172.037,22.073,172.037,21.854,171.89,21.854z"/>
			</g>
		</g>
		<g>
			<g>
				<path fill="#70D6F9" d="M231.2,163.9h-2.3v-2.3c0-1.7-1.4-3.2-3.2-3.2s-3.2,1.4-3.2,3.2v2.3h-2.3c-1.7,0-3.2,1.4-3.2,3.2
					s1.4,3.2,3.2,3.2h2.3v2.3c0,1.7,1.4,3.2,3.2,3.2s3.2-1.4,3.2-3.2v-2.3h2.3c1.7,0,3.2-1.4,3.2-3.2S233,163.9,231.2,163.9z"/>
			</g>
		</g>
		<g>
			<g>
				<path fill="#87D147" d="M3.4,101.5c-1.878,0-3.4,1.522-3.4,3.4c0,1.878,1.522,3.4,3.4,3.4c1.878,0,3.4-1.522,3.4-3.4
					C6.8,103.022,5.278,101.5,3.4,101.5z"/>
			</g>
		</g>
		<g>
			<g>
				<path fill="#F5C84C" d="M252.6,104.5c-1.878,0-3.4,1.522-3.4,3.4c0,1.878,1.522,3.4,3.4,3.4c1.878,0,3.4-1.522,3.4-3.4
					C256,106.022,254.478,104.5,252.6,104.5z"/>
			</g>
		</g>
		<g>
			<g>
				<path fill="#F9D0B4" d="M172.708,148.624l-8.151-6.996c-0.17,0.483-0.514,0.912-1.021,1.18l-23.768,12.565
					c-0.31,0.164-0.635,0.282-0.964,0.378c1.408,1.01,2.705,1.931,3.727,2.639c0.957,0.662,0.842,2.106-0.203,2.616l-38.547,18.805
					c0.564,0.81,0.619,1.948-0.09,2.821c-0.476,0.586-1.122,1.324-1.722,2.184c-1.919,2.747-1.278,6.604,1.433,8.573l7.487,5.438
					l56.474-25.536C178.58,168.065,180.043,154.804,172.708,148.624z"/>
			</g>
		</g>
		<g>
			<g>
				<path fill="#F5C84C" d="M163.904,139.256l-16.931-14.738c-1.723,1.084-3.827,1.466-5.87,1.025
					c-8.662-1.869-19.492-9.296-24.302-13.485c-1.255-1.093-1.826-2.625-1.726-4.129l-5.747,4.212
					c-8.413,6.167-6.973,19.712,1.75,25.432l23.338,17.457c1.577,1.112,3.645,1.244,5.351,0.342l23.768-12.565
					C164.888,142.093,165.081,140.233,163.904,139.256z"/>
			</g>
		</g>
		<g>
			<g>
				<path fill="#F5C84C" d="M111.078,137.574c-6.519-4.275-8.966-12.919-6.277-19.589l-21.64,18.058
					c-1.487,1.241-1.646,3.469-0.349,4.908l15.329,17.017c1.137,1.262,3.029,1.497,4.44,0.55l19.243-12.907L111.078,137.574z"/>
			</g>
		</g>
		<g>
			<g>
				<path fill="#F9D0B4" d="M98.141,157.968l-15.329-17.017c-0.281-0.313-0.481-0.666-0.627-1.035l-1.432,1.201
					c-2.075,1.739-4.365,3.205-6.813,4.36l-39.289,18.54c1.094,0.773,1.385,2.391,0.391,3.482c-0.508,0.558-1.195,1.258-1.843,2.083
					c-2.071,2.634-1.65,6.521,0.945,8.641l7.167,5.854l42.572-17.291c3.88-1.576,7.572-3.566,11.019-5.944
					c1.12-0.773,2.361-1.625,3.64-2.504C98.401,158.224,98.265,158.105,98.141,157.968z"/>
			</g>
		</g>
		<g>
			<g>
				<path fill="#DAE6F1" d="M42.63,160.251l-7.98,3.766c1.094,0.773,1.385,2.391,0.391,3.482c-0.508,0.558-1.195,1.258-1.843,2.083
					c-2.071,2.634-1.65,6.521,0.945,8.641l7.167,5.854l11.136-4.523C49.476,173.593,45.267,165.211,42.63,160.251z"/>
			</g>
		</g>
		<g>
			<g>
				<path fill="#DAE6F1" d="M112.061,175.771l-8.281,4.04c0.564,0.81,0.619,1.948-0.09,2.821c-0.476,0.586-1.122,1.324-1.722,2.184
					c-1.919,2.747-1.278,6.604,1.433,8.573l7.487,5.438l10.465-4.732C118.235,187.916,115.1,181.729,112.061,175.771z"/>
			</g>
		</g>
		<g>
			<g>
				<path fill="#FCA265" d="M93.005,127.829l-9.843,8.214c-1.487,1.241-1.646,3.469-0.349,4.908l10.705,11.884L93.005,127.829z"/>
			</g>
		</g>
		<g>
			<g>
				<path fill="#FCA265" d="M122.377,146.025l12.039,9.005c1.577,1.112,3.645,1.244,5.351,0.342l20.209-10.684L122.377,146.025z"/>
			</g>
		</g>
		<g>
			<g>
				<circle fill="#F9D0B4" cx="204.736" cy="42.492" r="20.991"/>
			</g>
		</g>
		<g>
			<g>
				<g>
					<g>
						<path d="M228.067,39.751L228.067,39.751c-1.514-12.865-13.206-22.099-26.073-20.589c-12.863,1.511-22.1,13.207-20.589,26.071
							c0.732,6.232,3.848,11.806,8.772,15.695c4.188,3.307,9.256,5.059,14.512,5.059c0.924,0,1.855-0.055,2.788-0.164
							C220.342,64.311,229.578,52.615,228.067,39.751z M206.894,60.857c-4.903,0.578-9.74-0.792-13.617-3.853
							c-3.877-3.061-6.328-7.448-6.904-12.354c-0.577-4.906,0.792-9.742,3.853-13.618c3.061-3.876,7.448-6.328,12.354-6.904
							c0.729-0.086,1.453-0.127,2.171-0.127c9.239,0,17.247,6.938,18.353,16.334l-0.001,0
							C224.291,50.46,217.021,59.667,206.894,60.857z"/>
					</g>
				</g>
			</g>
		</g>
		<g>
			<g>
				<path fill="#F5C84C" d="M181.768,62.401l-30.924-20.112c-1.783-1.159-4.173-0.581-5.229,1.265L134.19,63.523
					c-0.964,1.686-0.461,3.83,1.152,4.912l10.466,7.014c0.943,0.632,1.09,1.96,0.308,2.782l-29.689,26.593
					c-1.994,2.099-1.81,5.334,0.374,7.235c4.81,4.189,15.64,11.617,24.302,13.485c2.688,0.58,5.487-0.257,7.375-2.256l36.377-39.333
					C190.722,78.054,188.889,66.949,181.768,62.401z"/>
			</g>
		</g>
		<g>
			<g>
				<path fill="#FCA265" d="M196.58,103.633l-8.426-26.284c-0.415,2.466-1.487,4.784-3.297,6.605l-21.817,23.589l3.039,9.933
					c0.726,2.374,3.421,3.542,5.654,2.421l22.818-11.436C196.324,107.573,197.185,105.523,196.58,103.633z"/>
			</g>
		</g>
		<g>
			<g>
				<path fill="#F9D0B4" d="M234.511,123.366l-40.893-11.913l-0.67-2.189l-21.046,10.548l1.354,4.425
					c1.144,3.741,4.096,6.653,7.852,7.747l46.912,13.666c0.377,0.11,0.754,0.2,1.132,0.27c5.793,1.08,11.574-2.389,13.257-8.167
					C244.201,131.6,240.665,125.158,234.511,123.366z"/>
			</g>
		</g>
		<g>
			<g>
				<path fill="#F9D0B4" d="M139.012,39.903c-3.327-2.167-7.527-2.499-11.154-0.88L82.892,59.099
					c-5.898,2.633-8.545,9.55-5.912,15.449c1.629,3.648,4.895,6.051,8.546,6.732c2.252,0.42,4.652,0.184,6.903-0.821l39.149-17.479
					l2.253,1.468c0.081-0.316,0.189-0.629,0.359-0.925l11.153-19.495L139.012,39.903z"/>
			</g>
		</g>
		<g>
			<g>
				<path fill="#FCA265" d="M150.844,42.289c-1.783-1.159-4.173-0.581-5.229,1.265L134.19,63.523
					c-0.964,1.686-0.461,3.83,1.152,4.912l10.466,7.014c0.658,0.441,0.918,1.219,0.756,1.929l7.093-1.467
					c8.656-1.79,16.444-6.476,22.081-13.285l2.231-2.695L150.844,42.289z"/>
			</g>
		</g>
		<g>
			<g>
				<g>
					<g>
						<path d="M190.747,73.009c-0.583-5.277-3.433-10.027-7.623-12.708l-30.917-20.107c-1.423-0.926-3.185-1.227-4.837-0.829
							c-1.65,0.399-3.082,1.473-3.926,2.948l-11.424,19.968c-1.609,2.812-0.762,6.427,1.93,8.23l9.746,6.531l-28.937,25.919
							c-0.05,0.045-0.099,0.092-0.145,0.141c-1.429,1.504-2.163,3.458-2.065,5.502c0.098,2.063,1.024,3.959,2.61,5.34
							c5.253,4.574,16.356,12.089,25.416,14.043c0.725,0.156,1.457,0.232,2.185,0.232c2.825,0,5.583-1.15,7.553-3.235l36.316-39.268
							C189.787,82.54,191.288,77.908,190.747,73.009z M183.021,82.257l-36.36,39.313c-1.284,1.359-3.163,1.931-5.03,1.529
							c-8.079-1.743-18.51-8.854-23.187-12.926c-0.548-0.477-0.867-1.118-0.9-1.806c-0.03-0.642,0.196-1.264,0.639-1.76
							l29.601-26.515c0.05-0.045,0.099-0.092,0.145-0.141c0.882-0.928,1.306-2.189,1.165-3.461c-0.142-1.271-0.831-2.408-1.894-3.12
							l-10.467-7.014c-0.521-0.349-0.685-1.049-0.373-1.594l11.424-19.968c0.224-0.392,0.572-0.526,0.761-0.571
							c0.187-0.046,0.56-0.084,0.936,0.16l30.925,20.112c0.006,0.004,0.012,0.007,0.018,0.011c2.934,1.874,4.936,5.257,5.354,9.05
							C186.151,76.946,185.17,80.093,183.021,82.257z"/>
					</g>
				</g>
			</g>
		</g>
		<g>
			<g>
				<path d="M198.96,102.87l-8.29-25.86c-0.422-1.315-1.832-2.038-3.144-1.618c-1.315,0.422-2.039,1.829-1.618,3.144l8.29,25.861
					c0.231,0.721-0.092,1.491-0.769,1.83l-22.818,11.437c-0.548,0.275-1.039,0.143-1.282,0.039c-0.244-0.105-0.681-0.368-0.86-0.957
					l-2.835-9.266c-0.403-1.32-1.8-2.064-3.122-1.659c-1.32,0.404-2.063,1.802-1.659,3.122l2.835,9.265
					c0.563,1.841,1.901,3.332,3.673,4.091c0.824,0.353,1.698,0.528,2.57,0.528c1.002,0,2.002-0.232,2.922-0.693l22.817-11.437
					C198.565,109.246,199.949,105.954,198.96,102.87z"/>
			</g>
		</g>
		<g>
			<g>
				<path d="M243.632,127.722c-1.813-3.303-4.804-5.703-8.421-6.756l-39.597-11.535l-0.156-0.51c-0.403-1.32-1.799-2.064-3.122-1.66
					c-1.32,0.404-2.063,1.801-1.659,3.122l0.551,1.801c0.246,0.806,0.882,1.434,1.691,1.669l40.894,11.913
					c2.335,0.68,4.266,2.229,5.436,4.361c1.171,2.132,1.44,4.593,0.76,6.928c-1.314,4.514-5.779,7.271-10.399,6.408
					c-0.297-0.055-0.593-0.126-0.89-0.212l-46.911-13.666c-2.957-0.861-5.26-3.133-6.161-6.078l-1.238-4.05
					c-0.403-1.32-1.802-2.064-3.121-1.66c-1.321,0.403-2.064,1.801-1.66,3.122l1.238,4.051c1.396,4.563,4.964,8.083,9.544,9.417
					l46.911,13.665c0.453,0.132,0.916,0.243,1.373,0.328c0.879,0.164,1.755,0.244,2.619,0.244c6.161,0,11.71-4.037,13.496-10.168
					C245.862,134.836,245.444,131.024,243.632,127.722z"/>
			</g>
		</g>
		<g>
			<g>
				<path d="M146.124,41.552l-5.748-3.745c-4.057-2.643-9.117-3.041-13.537-1.068L81.873,56.816
					c-7.147,3.191-10.366,11.604-7.175,18.751c1.902,4.26,5.779,7.314,10.371,8.17c0.865,0.162,1.736,0.242,2.604,0.242
					c1.978,0,3.938-0.417,5.776-1.237l37.907-16.924l0.667,0.435c1.154,0.752,2.704,0.428,3.459-0.73
					c0.754-1.157,0.427-2.706-0.73-3.459l-1.808-1.178c-0.711-0.464-1.609-0.534-2.384-0.188L91.411,78.177
					c-1.714,0.765-3.591,0.987-5.425,0.646c-2.977-0.555-5.49-2.535-6.722-5.294c-2.067-4.63,0.018-10.08,4.648-12.147
					l44.966-20.076c2.863-1.277,6.143-1.02,8.769,0.692l5.747,3.745c1.157,0.752,2.705,0.427,3.46-0.73
					C147.607,43.855,147.28,42.306,146.124,41.552z"/>
			</g>
		</g>
		<g>
			<g>
				<path d="M179.363,58.247c-1.061-0.879-2.639-0.733-3.52,0.332l-2.031,2.454c-5.255,6.348-12.593,10.762-20.661,12.431
					l-6.863,1.419c-1.353,0.28-2.222,1.603-1.942,2.955c0.244,1.181,1.285,1.994,2.445,1.994c0.168,0,0.339-0.017,0.509-0.052
					l6.863-1.419c9.178-1.898,17.524-6.919,23.501-14.139l2.031-2.454C180.576,60.703,180.428,59.127,179.363,58.247z"/>
			</g>
		</g>
		<g>
			<g>
				<path fill="#FC657E" d="M43.861,190.711c0.383-2.507-0.587-5.03-2.551-6.635l-7.168-5.855c-2.592-2.117-3.052-5.926-0.999-8.569
					c0.664-0.856,1.377-1.58,1.899-2.154c1.255-1.378,0.484-3.617-1.398-3.903l-17.18,1.377c-2.598,0.598-3.942,3.157-3.073,5.607
					l13.096,36.905c3.687,10.39,10.236,12.016,13.023,12.219c2.635,0.191,4.823-2.111,4.085-4.418
					c-1.316-4.118-2.025-9.589-1.309-14.272L43.861,190.711z"/>
			</g>
		</g>
		<g>
			<g>
				<g>
					<g>
						<path d="M46.332,191.088c0.515-3.366-0.804-6.795-3.441-8.949l-7.168-5.854c-1.541-1.258-1.813-3.546-0.606-5.099
							c0.446-0.575,0.939-1.105,1.375-1.573l0.397-0.431c1.206-1.324,1.583-3.195,0.984-4.883c-0.599-1.688-2.077-2.905-3.856-3.174
							c-0.189-0.029-0.383-0.036-0.574-0.021l-17.18,1.377c-0.122,0.01-0.242,0.028-0.361,0.056
							c-1.944,0.447-3.526,1.627-4.456,3.322c-0.92,1.677-1.07,3.703-0.412,5.557l13.096,36.905
							c4.199,11.833,12.027,13.646,15.198,13.877c0.166,0.012,0.33,0.018,0.494,0.018c2.023,0,3.926-0.904,5.163-2.475
							c1.201-1.526,1.563-3.427,0.991-5.216v0c-1.346-4.214-1.813-9.247-1.219-13.133L46.332,191.088z M41.389,190.333
							l-1.575,10.304c-0.714,4.672-0.191,10.433,1.399,15.411v0c0.022,0.07,0.091,0.286-0.157,0.6
							c-0.228,0.29-0.719,0.617-1.366,0.563c-2.191-0.159-7.636-1.507-10.849-10.562l-13.096-36.906
							c-0.185-0.52-0.155-1.045,0.083-1.48c0.154-0.28,0.458-0.638,1.049-0.815l15.991-1.282l-0.038,0.042
							c-0.481,0.518-1.081,1.162-1.663,1.912c-2.856,3.678-2.232,9.078,1.392,12.038l7.168,5.854
							C41.001,187.052,41.638,188.708,41.389,190.333z"/>
					</g>
				</g>
			</g>
		</g>
		<g>
			<g>
				<path fill="#FC657E" d="M114.937,229.858c-1.547-4.036-2.565-9.459-2.116-14.175l0.989-10.376
					c0.241-2.525-0.871-4.989-2.923-6.48l-7.488-5.439c-2.707-1.967-3.383-5.743-1.483-8.498c0.615-0.892,1.285-1.656,1.774-2.258
					c1.175-1.447,0.278-3.639-1.617-3.817l-17.075,2.348c-2.56,0.744-3.757,3.375-2.75,5.772l15.167,36.104
					c4.27,10.164,10.901,11.417,13.695,11.461C113.751,234.542,115.804,232.119,114.937,229.858z"/>
			</g>
		</g>
		<g>
			<g>
				<g>
					<g>
						<path d="M117.271,228.963c-1.583-4.13-2.334-9.128-1.961-13.043l0.989-10.376c0.323-3.39-1.188-6.739-3.943-8.739l-7.488-5.44
							c-1.609-1.168-2.01-3.437-0.894-5.057c0.413-0.598,0.875-1.155,1.282-1.647l0.374-0.454c1.128-1.39,1.399-3.279,0.706-4.931
							c-0.693-1.652-2.238-2.783-4.03-2.952c-0.19-0.018-0.383-0.014-0.575,0.013l-17.075,2.348
							c-0.121,0.017-0.24,0.042-0.357,0.076c-1.916,0.557-3.429,1.825-4.261,3.57c-0.823,1.726-0.858,3.757-0.096,5.571
							l15.167,36.104c4.863,11.576,12.781,12.942,15.96,12.992c0.036,0.001,0.072,0.001,0.108,0.001
							c2.168,0,4.181-1.032,5.399-2.774C117.69,232.635,117.943,230.717,117.271,228.963z M112.48,231.361
							c-0.21,0.301-0.667,0.656-1.332,0.64c-2.197-0.035-7.708-1.071-11.43-9.93l-15.167-36.105c-0.214-0.508-0.214-1.035,0-1.482
							c0.137-0.289,0.421-0.664,1.001-0.874l15.893-2.186l-0.037,0.044c-0.451,0.544-1.013,1.221-1.551,2.002
							c-2.644,3.834-1.714,9.19,2.072,11.939l7.489,5.44c1.33,0.966,2.059,2.583,1.903,4.219l-0.989,10.376
							c-0.448,4.706,0.4,10.428,2.27,15.307C112.629,230.821,112.71,231.032,112.48,231.361z"/>
					</g>
				</g>
			</g>
		</g>
		<g>
			<g>
				<path d="M174.336,146.728l-7.509-6.445c-1.049-0.899-2.625-0.778-3.525,0.269c-0.898,1.048-0.778,2.626,0.27,3.525l7.526,6.46
					c2.715,2.287,4.031,5.94,3.522,9.773c-0.616,4.635-3.646,8.541-8.289,10.704L110.408,196.3c-1.258,0.569-1.817,2.05-1.248,3.308
					c0.417,0.924,1.327,1.471,2.279,1.471c0.344,0,0.694-0.071,1.028-0.223l55.949-25.298c6.154-2.867,10.326-8.321,11.159-14.589
					C180.312,155.435,178.346,150.105,174.336,146.728z"/>
			</g>
		</g>
		<g>
			<g>
				<g>
					<g>
						<path d="M143.953,156.333c-0.884-0.611-1.975-1.384-3.164-2.236c-1.125-0.804-2.686-0.544-3.488,0.578
							c-0.804,1.123-0.545,2.685,0.578,3.488c0.655,0.469,1.281,0.914,1.859,1.323l-36.615,17.862
							c-1.241,0.605-1.756,2.102-1.151,3.343c0.434,0.888,1.323,1.404,2.249,1.404c0.368,0,0.741-0.082,1.094-0.253l38.107-18.591
							c1.3-0.634,2.141-1.872,2.25-3.312C145.782,158.503,145.14,157.155,143.953,156.333z"/>
					</g>
				</g>
			</g>
		</g>
		<g>
			<g>
				<g>
					<g>
						<path d="M165.545,137.371l-16.409-14.285c-1.042-0.906-2.621-0.797-3.527,0.244c-0.906,1.042-0.797,2.621,0.244,3.527
							l16.061,13.98L138.6,153.163c-0.88,0.465-1.932,0.397-2.687-0.134l-23.337-17.457c-0.042-0.031-0.083-0.061-0.126-0.089
							c-3.718-2.438-6.102-6.823-6.223-11.445c-0.106-4.068,1.563-7.669,4.58-9.88l5.54-4.061c1.113-0.816,1.354-2.381,0.539-3.495
							c-0.816-1.113-2.381-1.354-3.495-0.539l-5.54,4.061c-4.358,3.194-6.771,8.313-6.622,14.043
							c0.162,6.208,3.383,12.121,8.412,15.452l23.335,17.454c1.317,0.928,2.85,1.399,4.391,1.399c1.219,0,2.443-0.295,3.569-0.891
							l23.77-12.565c1.374-0.727,2.29-2.084,2.45-3.631C167.314,139.841,166.696,138.325,165.545,137.371z"/>
					</g>
				</g>
			</g>
		</g>
		<g>
			<g>
				<path d="M123.303,144.62c-0.769-1.146-2.323-1.453-3.469-0.684l-18.646,12.506c-0.375,0.251-0.888,0.188-1.19-0.147
					l-15.329-17.017c-0.227-0.251-0.243-0.532-0.233-0.677s0.066-0.421,0.327-0.638l21.514-17.953
					c1.06-0.885,1.203-2.461,0.318-3.521c-0.884-1.061-2.461-1.203-3.521-0.318L81.56,134.124c-1.246,1.04-1.995,2.504-2.11,4.123
					c-0.115,1.618,0.419,3.173,1.505,4.378l15.329,17.017c1.153,1.279,2.773,1.947,4.407,1.947c1.14,0,2.285-0.325,3.283-0.994
					l18.646-12.506C123.766,147.319,124.072,145.766,123.303,144.62z"/>
			</g>
		</g>
		<g>
			<g>
				<path d="M99.946,157.371c-0.783-1.138-2.338-1.428-3.476-0.645l-2.989,2.057c-3.287,2.267-6.833,4.18-10.541,5.686
					l-42.065,17.085c-1.279,0.52-1.895,1.978-1.375,3.257c0.395,0.971,1.33,1.56,2.317,1.56c0.313,0,0.632-0.059,0.94-0.184
					l42.065-17.085c4.043-1.643,7.912-3.729,11.498-6.203l2.981-2.051C100.439,160.065,100.728,158.509,99.946,157.371z"/>
			</g>
		</g>
		<g>
			<g>
				<path d="M83.605,138.726c-0.887-1.058-2.463-1.197-3.522-0.31l-0.936,0.785c-1.91,1.601-4.021,2.952-6.274,4.016l-38.67,18.247
					c-1.249,0.589-1.783,2.079-1.194,3.328c0.426,0.904,1.325,1.434,2.262,1.434c0.357,0,0.721-0.077,1.065-0.24l38.67-18.247
					c2.641-1.246,5.114-2.829,7.353-4.705l0.936-0.785C84.353,141.361,84.492,139.784,83.605,138.726z"/>
			</g>
		</g>
		<g>
			<g>
				<path d="M54.468,178.009c-2.813-5.644-6.711-13.403-9.304-18.316c-0.645-1.222-2.158-1.688-3.378-1.044
					c-1.221,0.645-1.688,2.157-1.044,3.378c2.571,4.871,6.45,12.592,9.251,18.212c0.438,0.877,1.321,1.385,2.239,1.385
					c0.375,0,0.755-0.084,1.113-0.263C54.582,180.746,55.084,179.245,54.468,178.009z"/>
			</g>
		</g>
		<g>
			<g>
				<path d="M123.323,192.453c-2.921-5.79-5.855-11.581-8.709-17.178c-0.626-1.23-2.132-1.719-3.362-1.092
					c-1.23,0.627-1.719,2.132-1.092,3.362c2.85,5.592,5.781,11.376,8.699,17.16c0.439,0.872,1.32,1.375,2.234,1.375
					c0.378,0,0.763-0.086,1.124-0.269C123.45,195.189,123.945,193.686,123.323,192.453z"/>
			</g>
		</g>
		<g>
			<g>
				<path d="M95.512,128.178c-0.028-1.38-1.131-2.483-2.551-2.448c-1.38,0.028-2.477,1.17-2.448,2.551l0.5,24.35
					c0.028,1.363,1.142,2.449,2.499,2.449c0.018,0,0.035,0,0.052,0c1.38-0.028,2.477-1.17,2.448-2.551L95.512,128.178z"/>
			</g>
		</g>
		<g>
			<g>
				<path d="M159.663,142.199l-37.01,1.315c-1.38,0.049-2.458,1.208-2.41,2.587c0.048,1.35,1.157,2.411,2.497,2.411
					c0.03,0,0.06,0,0.09-0.001l37.01-1.315c1.38-0.049,2.459-1.208,2.409-2.587C162.201,143.229,161.04,142.148,159.663,142.199z"/>
			</g>
		</g>
		<g>
			<g>
				<path d="M93.467,38.43H43.825c-1.381,0-2.5,1.119-2.5,2.5s1.119,2.5,2.5,2.5h49.642c1.381,0,2.5-1.119,2.5-2.5
					S94.848,38.43,93.467,38.43z"/>
			</g>
		</g>
		<g>
			<g>
				<path d="M68.467,58.18H18.825c-1.381,0-2.5,1.119-2.5,2.5s1.119,2.5,2.5,2.5h49.642c1.381,0,2.5-1.119,2.5-2.5
					S69.848,58.18,68.467,58.18z"/>
			</g>
		</g>
		<g>
			<g>
				<path d="M68.467,77.93H18.825c-1.381,0-2.5,1.119-2.5,2.5s1.119,2.5,2.5,2.5h49.642c1.381,0,2.5-1.119,2.5-2.5
					S69.848,77.93,68.467,77.93z"/>
			</g>
		</g>
		<g>
			<g>
				<path d="M88.467,97.68H38.825c-1.381,0-2.5,1.119-2.5,2.5s1.119,2.5,2.5,2.5h49.642c1.381,0,2.5-1.119,2.5-2.5
					S89.848,97.68,88.467,97.68z"/>
			</g>
		</g>
		<g>
			<g>
				<path d="M66.467,117.43H16.825c-1.381,0-2.5,1.119-2.5,2.5s1.119,2.5,2.5,2.5h49.642c1.381,0,2.5-1.119,2.5-2.5
					S67.848,117.43,66.467,117.43z"/>
			</g>
		</g>
	</g>
</g>
<g id="Layer_4">
</g>
<g id="Layer_5">
</g>
<g id="Layer_6">
</g>
<g id="Layer_7">
</g>
<g id="Layer_8">
</g>
<g id="Layer_9">
</g>
<g id="Layer_10">
</g>
<g id="Layer_11">
</g>
<g id="Layer_12">
</g>
<g id="Layer_13">
</g>
<g id="Layer_14">
</g>
<g id="Layer_15">
</g>
<g id="Layer_16">
</g>
<g id="Layer_17">
</g>
<g id="Layer_18">
</g>
<g id="Layer_19">
</g>
<g id="Layer_20">
</g>
<g id="Layer_21">
</g>
<g id="Layer_22">
</g>
<g id="Layer_23">
</g>
<g id="Layer_24">
</g>
<g id="Layer_25">
</g>
<g id="Layer_26">
</g>
<g id="Layer_27">
</g>
<g id="Layer_28">
</g>
<g id="Layer_29">
</g>
<g id="Layer_30">
</g>
<g id="Layer_31">
</g>
<g id="Layer_32">
</g>
<g id="Layer_33">
</g>
<g id="Layer_34">
</g>
<g id="Layer_35">
</g>
<g id="Layer_36">
</g>
<g id="Layer_37">
</g>
<g id="Layer_38">
</g>
<g id="Layer_39">
</g>
<g id="Layer_40">
</g>
<g id="Layer_41">
</g>
<g id="Layer_42">
</g>
<g id="Layer_43">
</g>
<g id="Layer_44">
</g>
<g id="Layer_45">
</g>
<g id="Layer_46">
</g>
<g id="Layer_47">
</g>
<g id="Layer_48">
</g>
<g id="Layer_49">
</g>
<g id="Layer_50">
</g>
<g id="Layer_51">
</g>
<g id="Layer_52">
</g>
<g id="Layer_53">
</g>
<g id="Layer_54">
</g>
<g id="Layer_55">
</g>
<g id="Layer_56">
</g>
<g id="Layer_57">
</g>
<g id="Layer_58">
</g>
<g id="Layer_59">
</g>
<g id="Layer_60">
</g>
<g id="Layer_61">
</g>
<g id="Layer_62">
</g>
<g id="Layer_63">
</g>
<g id="Layer_64">
</g>
<g id="Layer_65">
</g>
<g id="Layer_66">
</g>
<g id="Layer_67">
</g>
<g id="Layer_68">
</g>
<g id="Layer_69">
</g>
<g id="Layer_70">
</g>
<g id="Layer_71">
</g>
<g id="Layer_72">
</g>
<g id="Layer_73">
</g>
<g id="Layer_74">
</g>
<g id="Layer_75">
</g>
</svg>
